Kolar Latin-Bold.ufo
<glyph name="dollar" format="1">
  <advance width="635"/>
  <unicode hex="0024"/>
  <outline>
    <contour>
      <point x="353" y="-162" type="line"/>
      <point x="353" y="-8" type="line"/>
      <point x="509" y="10"/>
      <point x="602" y="97"/>
      <point x="602" y="219" type="curve"/>
      <point x="602" y="317"/>
      <point x="555" y="397"/>
      <point x="353" y="490" type="curve"/>
      <point x="353" y="682" type="line"/>
      <point x="443" y="673"/>
      <point x="405" y="516"/>
      <point x="520" y="516" type="curve" smooth="yes"/>
      <point x="564" y="516"/>
      <point x="584" y="543"/>
      <point x="584" y="577" type="curve" smooth="yes"/>
      <point x="584" y="668"/>
      <point x="465" y="740"/>
      <point x="353" y="745" type="curve"/>
      <point x="353" y="862" type="line"/>
      <point x="282" y="862" type="line"/>
      <point x="282" y="744" type="line"/>
      <point x="172" y="732"/>
      <point x="65" y="654"/>
      <point x="65" y="513" type="curve"/>
      <point x="65" y="406"/>
      <point x="137" y="338"/>
      <point x="282" y="267" type="curve"/>
      <point x="282" y="55" type="line"/>
      <point x="239" y="61"/>
      <point x="234" y="86"/>
      <point x="215" y="150" type="curve" smooth="yes"/>
      <point x="189" y="246"/>
      <point x="150" y="261"/>
      <point x="109" y="261" type="curve" smooth="yes"/>
      <point x="57" y="261"/>
      <point x="35" y="219"/>
      <point x="35" y="175" type="curve" smooth="yes"/>
      <point x="35" y="81"/>
      <point x="142" y="0"/>
      <point x="282" y="-8" type="curve"/>
      <point x="282" y="-162" type="line"/>
    </contour>
    <contour>
      <point x="193" y="617" type="curve"/>
      <point x="193" y="657"/>
      <point x="233" y="677"/>
      <point x="282" y="682" type="curve"/>
      <point x="282" y="521" type="line"/>
      <point x="211" y="551"/>
      <point x="193" y="585"/>
    </contour>
    <contour>
      <point x="465" y="141" type="curve"/>
      <point x="465" y="93"/>
      <point x="424" y="68"/>
      <point x="353" y="56" type="curve"/>
      <point x="353" y="240" type="line"/>
      <point x="428" y="208"/>
      <point x="465" y="182"/>
    </contour>
  </outline>
</glyph>
<glyph name="percent" format="1">
  <advance width="700"/>
  <unicode hex="0025"/>
  <outline>
    <contour>
      <point x="674" y="737" type="line"/>
      <point x="595" y="737" type="line"/>
      <point x="28" y="0" type="line"/>
      <point x="116" y="0" type="line"/>
    </contour>
    <contour>
      <point x="213" y="747" type="curve" smooth="yes"/>
      <point x="124" y="747"/>
      <point x="56" y="680"/>
      <point x="56" y="594" type="curve" smooth="yes"/>
      <point x="56" y="511"/>
      <point x="124" y="445"/>
      <point x="213" y="445" type="curve" smooth="yes"/>
      <point x="305" y="445"/>
      <point x="369" y="511"/>
      <point x="369" y="594" type="curve" smooth="yes"/>
      <point x="369" y="680"/>
      <point x="305" y="747"/>
    </contour>
    <contour>
      <point x="213" y="483" type="curve" smooth="yes"/>
      <point x="182" y="483"/>
      <point x="165" y="507"/>
      <point x="165" y="592" type="curve" smooth="yes"/>
      <point x="165" y="680"/>
      <point x="182" y="709"/>
      <point x="213" y="709" type="curve" smooth="yes"/>
      <point x="245" y="709"/>
      <point x="262" y="680"/>
      <point x="262" y="592" type="curve" smooth="yes"/>
      <point x="262" y="507"/>
      <point x="244" y="483"/>
    </contour>
    <contour>
      <point x="491" y="294" type="curve" smooth="yes"/>
      <point x="401" y="294"/>
      <point x="334" y="227"/>
      <point x="334" y="140" type="curve" smooth="yes"/>
      <point x="334" y="57"/>
      <point x="401" y="-9"/>
      <point x="491" y="-9" type="curve" smooth="yes"/>
      <point x="583" y="-9"/>
      <point x="647" y="57"/>
      <point x="647" y="140" type="curve" smooth="yes"/>
      <point x="647" y="227"/>
      <point x="583" y="294"/>
    </contour>
    <contour>
      <point x="491" y="29" type="curve" smooth="yes"/>
      <point x="460" y="29"/>
      <point x="443" y="54"/>
      <point x="443" y="138" type="curve" smooth="yes"/>
      <point x="443" y="227"/>
      <point x="460" y="256"/>
      <point x="491" y="256" type="curve" smooth="yes"/>
      <point x="523" y="256"/>
      <point x="538" y="227"/>
      <point x="538" y="138" type="curve" smooth="yes"/>
      <point x="538" y="54"/>
      <point x="522" y="29"/>
    </contour>
  </outline>
</glyph>
<glyph name="ampersand" format="1">
  <advance width="874"/>
  <unicode hex="0026"/>
  <outline>
    <contour>
      <point x="403" y="382" type="line"/>
      <point x="511" y="398"/>
      <point x="579" y="468"/>
      <point x="579" y="558" type="curve"/>
      <point x="579" y="654"/>
      <point x="493" y="723"/>
      <point x="365" y="723" type="curve"/>
      <point x="218" y="723"/>
      <point x="117" y="633"/>
      <point x="117" y="523" type="curve"/>
      <point x="117" y="476"/>
      <point x="133" y="430"/>
      <point x="182" y="367" type="curve"/>
      <point x="75" y="316"/>
      <point x="12" y="257"/>
      <point x="12" y="168" type="curve"/>
      <point x="12" y="57"/>
      <point x="102" y="-10"/>
      <point x="225" y="-10" type="curve"/>
      <point x="294" y="-10"/>
      <point x="385" y="10"/>
      <point x="462" y="64" type="curve"/>
      <point x="519" y="12"/>
      <point x="581" y="-10"/>
      <point x="657" y="-10" type="curve"/>
      <point x="760" y="-10"/>
      <point x="845" y="55"/>
      <point x="855" y="126" type="curve"/>
      <point x="829" y="134" type="line"/>
      <point x="808" y="102"/>
      <point x="778" y="92"/>
      <point x="750" y="92" type="curve"/>
      <point x="711" y="92"/>
      <point x="663" y="109"/>
      <point x="591" y="185" type="curve"/>
      <point x="714" y="333" type="line" smooth="yes"/>
      <point x="746" y="372"/>
      <point x="772" y="396"/>
      <point x="829" y="396" type="curve"/>
      <point x="829" y="437" type="line"/>
      <point x="591" y="437" type="line"/>
      <point x="591" y="396" type="line"/>
      <point x="638" y="396"/>
      <point x="655" y="388"/>
      <point x="655" y="368" type="curve" smooth="yes"/>
      <point x="655.0" y="345.689873418"/>
      <point x="617.986746755" y="301.40511585"/>
      <point x="553" y="227" type="curve"/>
    </contour>
    <contour>
      <point x="363" y="428" type="curve"/>
      <point x="317" y="482"/>
      <point x="298" y="533"/>
      <point x="298" y="573" type="curve" smooth="yes"/>
      <point x="298" y="624"/>
      <point x="329" y="658"/>
      <point x="372" y="658" type="curve"/>
      <point x="412" y="658"/>
      <point x="437" y="627"/>
      <point x="437" y="584" type="curve"/>
      <point x="437" y="528"/>
      <point x="413" y="479"/>
    </contour>
    <contour>
      <point x="422" y="103" type="line"/>
      <point x="395" y="93"/>
      <point x="361" y="85"/>
      <point x="330" y="85" type="curve" smooth="yes"/>
      <point x="271" y="85"/>
      <point x="202" y="107"/>
      <point x="202" y="209" type="curve" smooth="yes"/>
      <point x="202.0" y="236.577235772"/>
      <point x="210" y="282"/>
      <point x="224" y="315" type="curve"/>
    </contour>
  </outline>
</glyph>
<glyph name="quotesingle" format="1">
  <advance width="203"/>
  <unicode hex="0027"/>
  <outline>
    <contour>
      <point x="124" y="525" type="line"/>
      <point x="136" y="592"/>
      <point x="164" y="704"/>
      <point x="164" y="732" type="curve" smooth="yes"/>
      <point x="164" y="769"/>
      <point x="137" y="795"/>
      <point x="101" y="795" type="curve" smooth="yes"/>
      <point x="67" y="795"/>
      <point x="40" y="769"/>
      <point x="40" y="733" type="curve" smooth="yes"/>
      <point x="40" y="705"/>
      <point x="67" y="592"/>
      <point x="79" y="525" type="curve"/>
    </contour>
  </outline>
</glyph>
<glyph name="parenleft" format="1">
  <advance width="376"/>
  <unicode hex="0028"/>
  <outline>
    <contour>
      <point x="326" y="796" type="line"/>
      <point x="128" y="648"/>
      <point x="28" y="481"/>
      <point x="28" y="310" type="curve" smooth="yes"/>
      <point x="28" y="132"/>
      <point x="133" y="-39"/>
      <point x="333" y="-186" type="curve"/>
      <point x="365" y="-152" type="line"/>
      <point x="264" y="-21"/>
      <point x="221" y="184"/>
      <point x="221" y="329" type="curve" smooth="yes"/>
      <point x="221" y="441"/>
      <point x="255" y="605"/>
      <point x="357" y="768" type="curve"/>
    </contour>
  </outline>
</glyph>
<glyph name="parenright" format="1">
  <advance width="376"/>
  <unicode hex="0029"/>
  <outline>
    <contour>
      <point x="20" y="768" type="line"/>
      <point x="122" y="605"/>
      <point x="156" y="441"/>
      <point x="156" y="329" type="curve" smooth="yes"/>
      <point x="156" y="184"/>
      <point x="112" y="-21"/>
      <point x="10" y="-152" type="curve"/>
      <point x="42" y="-186" type="line"/>
      <point x="242" y="-39"/>
      <point x="348" y="132"/>
      <point x="348" y="310" type="curve" smooth="yes"/>
      <point x="348" y="481"/>
      <point x="247" y="648"/>
      <point x="50" y="796" type="curve"/>
    </contour>
  </outline>
</glyph>
<glyph name="comma" format="1">
  <advance width="267"/>
  <unicode hex="002C"/>
  <outline>
    <contour>
      <point x="51" y="-139" type="line"/>
      <point x="162" y="-100"/>
      <point x="218" y="-14"/>
      <point x="218" y="61" type="curve" smooth="yes"/>
      <point x="218" y="112"/>
      <point x="187" y="167"/>
      <point x="122" y="167" type="curve" smooth="yes"/>
      <point x="55" y="167"/>
      <point x="19" y="123"/>
      <point x="19" y="74" type="curve" smooth="yes"/>
      <point x="19" y="22"/>
      <point x="51" y="-8"/>
      <point x="91" y="-8" type="curve" smooth="yes"/>
      <point x="112" y="-8"/>
      <point x="122" y="-3"/>
      <point x="129" y="1" type="curve"/>
      <point x="129" y="-14"/>
      <point x="121" y="-45"/>
      <point x="20" y="-95" type="curve"/>
    </contour>
  </outline>
</glyph>
<glyph name="hyphen" format="1">
  <advance width="435"/>
  <unicode hex="002D"/>
  <outline>
    <contour>
      <point x="377" y="230" type="line"/>
      <point x="377" y="324" type="line"/>
      <point x="58" y="324" type="line"/>
      <point x="58" y="230" type="line"/>
    </contour>
  </outline>
</glyph>
<glyph name="period" format="1">
  <advance width="280"/>
  <unicode hex="002E"/>
  <outline>
    <contour>
      <point x="46" y="82" type="curve" smooth="yes"/>
      <point x="46" y="31"/>
      <point x="87" y="-9"/>
      <point x="138" y="-9" type="curve" smooth="yes"/>
      <point x="193" y="-9"/>
      <point x="234" y="31"/>
      <point x="234" y="82" type="curve" smooth="yes"/>
      <point x="234" y="135"/>
      <point x="193" y="177"/>
      <point x="138" y="177" type="curve" smooth="yes"/>
      <point x="87" y="177"/>
      <point x="46" y="135"/>
    </contour>
  </outline>
</glyph>
<glyph name="slash" format="1">
  <advance width="465"/>
  <unicode hex="002F"/>
  <outline>
    <contour>
      <point x="447" y="737" type="line"/>
      <point x="383" y="737" type="line"/>
      <point x="20" y="0" type="line"/>
      <point x="94" y="0" type="line"/>
    </contour>
  </outline>
</glyph>
<glyph name="two" format="1">
  <advance width="653"/>
  <unicode hex="0032"/>
  <outline>
    <contour>
      <point x="249" y="154" type="line"/>
      <point x="439" y="251"/>
      <point x="600" y="351"/>
      <point x="600" y="503" type="curve" smooth="yes"/>
      <point x="600" y="625"/>
      <point x="499" y="710"/>
      <point x="321" y="710" type="curve" smooth="yes"/>
      <point x="162" y="710"/>
      <point x="42" y="626"/>
      <point x="42" y="511" type="curve" smooth="yes"/>
      <point x="42" y="428"/>
      <point x="97" y="368"/>
      <point x="165" y="368" type="curve" smooth="yes"/>
      <point x="224" y="368"/>
      <point x="264" y="393"/>
      <point x="269" y="432" type="curve"/>
      <point x="223" y="436"/>
      <point x="211" y="474"/>
      <point x="211" y="544" type="curve"/>
      <point x="211" y="612"/>
      <point x="243" y="650"/>
      <point x="303" y="650" type="curve"/>
      <point x="367" y="650"/>
      <point x="394" y="595"/>
      <point x="394" y="505" type="curve" smooth="yes"/>
      <point x="394" y="371"/>
      <point x="324" y="274"/>
      <point x="33" y="50" type="curve"/>
      <point x="33" y="0" type="line"/>
      <point x="575" y="0" type="line"/>
      <point x="614" y="239" type="line"/>
      <point x="570" y="239" type="line"/>
      <point x="543" y="172"/>
      <point x="516" y="149"/>
      <point x="451" y="149" type="curve" smooth="yes"/>
      <point x="250" y="149" type="line"/>
    </contour>
  </outline>
</glyph>
<glyph name="colon" format="1">
  <advance width="305"/>
  <unicode hex="003A"/>
  <outline>
    <contour>
      <point x="58" y="506" type="curve" smooth="yes"/>
      <point x="58" y="455"/>
      <point x="99" y="414"/>
      <point x="150" y="414" type="curve" smooth="yes"/>
      <point x="205" y="414"/>
      <point x="246" y="455"/>
      <point x="246" y="506" type="curve" smooth="yes"/>
      <point x="246" y="560"/>
      <point x="205" y="602"/>
      <point x="150" y="602" type="curve" smooth="yes"/>
      <point x="99" y="602"/>
      <point x="58" y="560"/>
    </contour>
    <contour>
      <point x="58" y="-68" type="curve" smooth="yes"/>
      <point x="58" y="-119"/>
      <point x="99" y="-158"/>
      <point x="150" y="-158" type="curve" smooth="yes"/>
      <point x="205" y="-158"/>
      <point x="246" y="-119"/>
      <point x="246" y="-68" type="curve" smooth="yes"/>
      <point x="246" y="-14"/>
      <point x="205" y="28"/>
      <point x="150" y="28" type="curve" smooth="yes"/>
      <point x="99" y="28"/>
      <point x="58" y="-14"/>
    </contour>
  </outline>
</glyph>
<glyph name="semicolon" format="1">
  <advance width="296"/>
  <unicode hex="003B"/>
  <outline>
    <contour>
      <point x="42" y="357" type="curve" smooth="yes"/>
      <point x="42" y="306"/>
      <point x="83" y="265"/>
      <point x="134" y="265" type="curve" smooth="yes"/>
      <point x="189" y="265"/>
      <point x="230" y="306"/>
      <point x="230" y="357" type="curve" smooth="yes"/>
      <point x="230" y="411"/>
      <point x="189" y="453"/>
      <point x="134" y="453" type="curve" smooth="yes"/>
      <point x="83" y="453"/>
      <point x="42" y="411"/>
    </contour>
    <contour>
      <point x="68" y="-139" type="line"/>
      <point x="178" y="-100"/>
      <point x="235" y="-14"/>
      <point x="235" y="61" type="curve" smooth="yes"/>
      <point x="235" y="112"/>
      <point x="204" y="167"/>
      <point x="139" y="167" type="curve" smooth="yes"/>
      <point x="72" y="167"/>
      <point x="36" y="123"/>
      <point x="36" y="74" type="curve" smooth="yes"/>
      <point x="36" y="22"/>
      <point x="68" y="-8"/>
      <point x="108" y="-8" type="curve" smooth="yes"/>
      <point x="129" y="-8"/>
      <point x="139" y="-3"/>
      <point x="146" y="1" type="curve"/>
      <point x="146" y="-14"/>
      <point x="138" y="-45"/>
      <point x="37" y="-95" type="curve"/>
    </contour>
  </outline>
</glyph>
<glyph name="equal" format="1">
  <advance width="591"/>
  <unicode hex="003D"/>
  <outline>
    <contour>
      <point x="529" y="467" type="line"/>
      <point x="63" y="467" type="line"/>
      <point x="63" y="404" type="line"/>
      <point x="529" y="404" type="line"/>
    </contour>
    <contour>
      <point x="529" y="290" type="line"/>
      <point x="63" y="290" type="line"/>
      <point x="63" y="227" type="line"/>
      <point x="529" y="227" type="line"/>
    </contour>
  </outline>
</glyph>
<glyph name="question" format="1">
  <advance width="434"/>
  <unicode hex="003F"/>
  <outline>
    <contour>
      <point x="203" y="229" type="line"/>
      <point x="203" y="315" type="line"/>
      <point x="309" y="302"/>
      <point x="396" y="363"/>
      <point x="396" y="493" type="curve" smooth="yes"/>
      <point x="396" y="647"/>
      <point x="274" y="747"/>
      <point x="146" y="747" type="curve" smooth="yes"/>
      <point x="91" y="747"/>
      <point x="45" y="726"/>
      <point x="45" y="680" type="curve" smooth="yes"/>
      <point x="45" y="639"/>
      <point x="82" y="611"/>
      <point x="123" y="611" type="curve" smooth="yes"/>
      <point x="161" y="611"/>
      <point x="188" y="621"/>
      <point x="225" y="621" type="curve" smooth="yes"/>
      <point x="283" y="621"/>
      <point x="328" y="593"/>
      <point x="328" y="541" type="curve" smooth="yes"/>
      <point x="328" y="493"/>
      <point x="258" y="467"/>
      <point x="168" y="467" type="curve" smooth="yes"/>
      <point x="132" y="467" type="line"/>
      <point x="132" y="229" type="line"/>
    </contour>
    <contour>
      <point x="74" y="82" type="curve" smooth="yes"/>
      <point x="74" y="31"/>
      <point x="115" y="-9"/>
      <point x="166" y="-9" type="curve" smooth="yes"/>
      <point x="223" y="-9"/>
      <point x="262" y="31"/>
      <point x="262" y="82" type="curve" smooth="yes"/>
      <point x="262" y="135"/>
      <point x="223" y="177"/>
      <point x="166" y="177" type="curve" smooth="yes"/>
      <point x="115" y="177"/>
      <point x="74" y="135"/>
    </contour>
  </outline>
</glyph>
<glyph name="at" format="1">
  <advance width="1031"/>
  <unicode hex="0040"/>
  <outline>
    <contour>
      <point x="691" y="508" type="line"/>
      <point x="852" y="508" type="line"/>
      <point x="784" y="295" type="line" smooth="yes"/>
      <point x="765" y="236"/>
      <point x="756" y="198"/>
      <point x="756" y="173" type="curve" smooth="yes"/>
      <point x="756" y="145"/>
      <point x="768" y="136"/>
      <point x="787" y="136" type="curve"/>
      <point x="845" y="136"/>
      <point x="927" y="250"/>
      <point x="927" y="399" type="curve" smooth="yes"/>
      <point x="927" y="567"/>
      <point x="785" y="690"/>
      <point x="584" y="690" type="curve" smooth="yes"/>
      <point x="349" y="690"/>
      <point x="170" y="514"/>
      <point x="170" y="288" type="curve" smooth="yes"/>
      <point x="170" y="75"/>
      <point x="326" y="-69"/>
      <point x="559" y="-69" type="curve" smooth="yes"/>
      <point x="671" y="-69"/>
      <point x="773" y="-38"/>
      <point x="868" y="28" type="curve"/>
      <point x="903" y="-16" type="line"/>
      <point x="780" y="-95"/>
      <point x="674" y="-128"/>
      <point x="542" y="-128" type="curve" smooth="yes"/>
      <point x="245" y="-128"/>
      <point x="33" y="45"/>
      <point x="33" y="289" type="curve" smooth="yes"/>
      <point x="33" y="545"/>
      <point x="270" y="747"/>
      <point x="573" y="747" type="curve" smooth="yes"/>
      <point x="825" y="747"/>
      <point x="986" y="610"/>
      <point x="986" y="404" type="curve" smooth="yes"/>
      <point x="986" y="203"/>
      <point x="870" y="75"/>
      <point x="749" y="75" type="curve" smooth="yes"/>
      <point x="661" y="75"/>
      <point x="609" y="114"/>
      <point x="603" y="184" type="curve"/>
      <point x="600" y="184" type="line"/>
      <point x="556" y="112"/>
      <point x="515" y="75"/>
      <point x="433" y="75" type="curve" smooth="yes"/>
      <point x="314" y="75"/>
      <point x="265" y="163"/>
      <point x="265" y="259" type="curve" smooth="yes"/>
      <point x="265" y="409"/>
      <point x="408" y="517"/>
      <point x="553" y="517" type="curve" smooth="yes"/>
      <point x="616" y="517"/>
      <point x="659" y="480"/>
      <point x="666" y="424" type="curve"/>
      <point x="670" y="424" type="line"/>
    </contour>
    <contour>
      <point x="565" y="462" type="curve" smooth="yes"/>
      <point x="483" y="462"/>
      <point x="433" y="360"/>
      <point x="433" y="231" type="curve"/>
      <point x="433" y="162"/>
      <point x="451" y="130"/>
      <point x="486" y="130" type="curve" smooth="yes"/>
      <point x="538" y="130"/>
      <point x="631" y="261"/>
      <point x="631" y="376" type="curve" smooth="yes"/>
      <point x="631" y="432"/>
      <point x="608" y="462"/>
    </contour>
  </outline>
</glyph>
<glyph name="D" format="1">
  <advance width="957"/>
  <unicode hex="0044"/>
  <outline>
    <contour>
      <point x="32" y="0" type="line"/>
      <point x="32" y="40" type="line"/>
      <point x="110" y="43"/>
      <point x="126" y="58"/>
      <point x="126" y="148" type="curve" smooth="yes"/>
      <point x="126" y="552" type="line"/>
      <point x="126" y="641"/>
      <point x="114" y="658"/>
      <point x="46" y="660" type="curve"/>
      <point x="46" y="700" type="line"/>
      <point x="447" y="700" type="line"/>
      <point x="694.212814645" y="700.0"/>
      <point x="869.0" y="546.0"/>
      <point x="869" y="344" type="curve"/>
      <point x="869.0" y="146.0"/>
      <point x="706.09375" y="0.0"/>
      <point x="468" y="0" type="curve"/>
    </contour>
    <contour>
      <point x="339" y="637" type="line"/>
      <point x="329" y="637"/>
      <point x="323" y="630"/>
      <point x="323" y="621" type="curve" smooth="yes"/>
      <point x="323" y="173" type="line"/>
      <point x="323.0" y="99.0"/>
      <point x="357" y="65"/>
      <point x="441" y="65" type="curve"/>
      <point x="579" y="65"/>
      <point x="649.0" y="167.0"/>
      <point x="649" y="341" type="curve"/>
      <point x="649.0" y="523.0"/>
      <point x="572.375527426" y="637.0"/>
      <point x="422" y="637" type="curve"/>
    </contour>
    <contour>
      <point x="495" y="795" type="move" name="topcap"/>
    </contour>
    <contour>
      <point x="495" y="0" type="move" name="bottom"/>
    </contour>
  </outline>
</glyph>
<glyph name="E" format="1">
  <advance width="786"/>
  <unicode hex="0045"/>
  <outline>
    <contour>
      <point x="324" y="600" type="line"/>
      <point x="324" y="640"/>
      <point x="327" y="645"/>
      <point x="370" y="645" type="curve" smooth="yes"/>
      <point x="457" y="645" type="line"/>
      <point x="596" y="645"/>
      <point x="636" y="614"/>
      <point x="653" y="503" type="curve"/>
      <point x="698" y="503" type="line"/>
      <point x="692" y="700" type="line"/>
      <point x="40" y="700" type="line"/>
      <point x="40" y="660" type="line"/>
      <point x="114" y="658"/>
      <point x="127" y="641"/>
      <point x="127" y="552" type="curve" smooth="yes"/>
      <point x="127" y="148" type="line"/>
      <point x="127" y="59"/>
      <point x="112" y="43"/>
      <point x="29" y="40" type="curve"/>
      <point x="29" y="0" type="line"/>
      <point x="726" y="0" type="line"/>
      <point x="742" y="234" type="line"/>
      <point x="702" y="234" type="line"/>
      <point x="675" y="96"/>
      <point x="626" y="59"/>
      <point x="476" y="59" type="curve" smooth="yes"/>
      <point x="362.22754491" y="59.0"/>
      <point x="324" y="85.0"/>
      <point x="324" y="167" type="curve" smooth="yes"/>
      <point x="324" y="339" type="line"/>
      <point x="479.826086957" y="339.0"/>
      <point x="496.057039862" y="338.72335667"/>
      <point x="516" y="242" type="curve"/>
      <point x="553" y="242" type="line"/>
      <point x="553" y="493" type="line"/>
      <point x="516" y="493" type="line"/>
      <point x="503.016029373" y="396.11960378"/>
      <point x="488.173913043" y="393.0"/>
      <point x="324" y="393" type="curve"/>
    </contour>
    <contour>
      <point x="436" y="795" type="move" name="topcap"/>
    </contour>
    <contour>
      <point x="436" y="0" type="move" name="bottom"/>
    </contour>
  </outline>
</glyph>
<glyph name="F" format="1">
  <advance width="705"/>
  <unicode hex="0046"/>
  <outline>
    <contour>
      <point x="324" y="156" type="line"/>
      <point x="324" y="58"/>
      <point x="343" y="43"/>
      <point x="467" y="40" type="curve"/>
      <point x="467" y="0" type="line"/>
      <point x="29" y="0" type="line"/>
      <point x="29" y="40" type="line"/>
      <point x="112" y="43"/>
      <point x="127" y="59"/>
      <point x="127" y="148" type="curve" smooth="yes"/>
      <point x="127" y="552" type="line"/>
      <point x="127" y="641"/>
      <point x="114" y="658"/>
      <point x="40" y="660" type="curve"/>
      <point x="40" y="700" type="line"/>
      <point x="663" y="700" type="line"/>
      <point x="675" y="489" type="line"/>
      <point x="632" y="489" type="line"/>
      <point x="617" y="599"/>
      <point x="581" y="642"/>
      <point x="463" y="642" type="curve" smooth="yes"/>
      <point x="342" y="642" type="line"/>
      <point x="332" y="642"/>
      <point x="324" y="638"/>
      <point x="324" y="626" type="curve" smooth="yes"/>
      <point x="324" y="366" type="line"/>
      <point x="482.0" y="366.0"/>
      <point x="507.713121849" y="383.478226426"/>
      <point x="516" y="482" type="curve"/>
      <point x="553" y="482" type="line"/>
      <point x="553" y="194" type="line"/>
      <point x="516" y="194" type="line"/>
      <point x="501.243373533" y="297.29638527"/>
      <point x="472.999488508" y="309.000003433"/>
      <point x="324" y="310" type="curve"/>
    </contour>
  </outline>
</glyph>
<glyph name="G" format="1">
  <advance width="868"/>
  <unicode hex="0047"/>
  <outline>
    <contour>
      <point x="480" y="641" type="curve"/>
      <point x="601.155555556" y="641.0"/>
      <point x="673.783875811" y="561.595659349"/>
      <point x="715" y="448" type="curve"/>
      <point x="748" y="448" type="line"/>
      <point x="771" y="700" type="line"/>
      <point x="718" y="700" type="line"/>
      <point x="700" y="641" type="line"/>
      <point x="629.767913784" y="685.411466284"/>
      <point x="564.063926941" y="710.0"/>
      <point x="471" y="710" type="curve"/>
      <point x="250" y="710"/>
      <point x="75.0" y="558.0"/>
      <point x="75" y="335" type="curve"/>
      <point x="75" y="128"/>
      <point x="234" y="-9"/>
      <point x="449" y="-9" type="curve"/>
      <point x="626" y="-9"/>
      <point x="662" y="79"/>
      <point x="774" y="79" type="curve"/>
      <point x="774" y="217" type="line"/>
      <point x="774" y="290"/>
      <point x="798" y="316"/>
      <point x="860" y="316" type="curve"/>
      <point x="860" y="355" type="line"/>
      <point x="505" y="355" type="line"/>
      <point x="505" y="316" type="line"/>
      <point x="578.240615827" y="306.970335035"/>
      <point x="608.0" y="271.838709677"/>
      <point x="608" y="205" type="curve"/>
      <point x="608.0" y="110.777777778"/>
      <point x="565.0" y="61.0"/>
      <point x="466" y="61" type="curve"/>
      <point x="363" y="61"/>
      <point x="295.0" y="151.671480144"/>
      <point x="295" y="337" type="curve"/>
      <point x="295.0" y="538.0"/>
      <point x="348.128205128" y="641.0"/>
    </contour>
    <contour>
      <point x="470.0" y="795.0" type="move" name="topcap"/>
    </contour>
    <contour>
      <point x="454.0" y="0.0" type="move" name="bottom"/>
    </contour>
  </outline>
</glyph>
<glyph name="H" format="1">
  <advance width="989"/>
  <unicode hex="0048"/>
  <outline>
    <contour>
      <point x="835" y="156" type="line"/>
      <point x="835" y="58"/>
      <point x="851" y="43"/>
      <point x="935" y="40" type="curve"/>
      <point x="935" y="0" type="line"/>
      <point x="537" y="0" type="line"/>
      <point x="537" y="40" type="line"/>
      <point x="623.526721135" y="42.7324227727"/>
      <point x="639" y="59.0"/>
      <point x="639" y="148" type="curve" smooth="yes"/>
      <point x="639" y="327" type="line"/>
      <point x="334" y="327" type="line"/>
      <point x="334" y="156" type="line"/>
      <point x="334.0" y="58.0"/>
      <point x="348.562656722" y="42.7324169774"/>
      <point x="436" y="40" type="curve"/>
      <point x="436" y="0" type="line"/>
      <point x="39" y="0" type="line"/>
      <point x="39" y="40" type="line"/>
      <point x="124" y="43"/>
      <point x="137" y="59"/>
      <point x="137" y="148" type="curve" smooth="yes"/>
      <point x="137" y="552" type="line"/>
      <point x="137" y="641"/>
      <point x="126" y="658"/>
      <point x="50" y="660" type="curve"/>
      <point x="50" y="700" type="line"/>
      <point x="426" y="700" type="line"/>
      <point x="426" y="660" type="line"/>
      <point x="347.528223799" y="659.098025561"/>
      <point x="334" y="643.0"/>
      <point x="334" y="545" type="curve" smooth="yes"/>
      <point x="334" y="393" type="line"/>
      <point x="639" y="393" type="line"/>
      <point x="639" y="552" type="line"/>
      <point x="639.0" y="641.0"/>
      <point x="625.460958467" y="658.194069126"/>
      <point x="546" y="660" type="curve"/>
      <point x="546" y="700" type="line"/>
      <point x="923" y="700" type="line"/>
      <point x="923" y="660" type="line"/>
      <point x="849" y="659"/>
      <point x="835" y="643"/>
      <point x="835" y="545" type="curve" smooth="yes"/>
    </contour>
    <contour>
      <point x="529" y="795" type="move" name="topcap"/>
    </contour>
    <contour>
      <point x="529" y="0" type="move" name="bottom"/>
    </contour>
  </outline>
</glyph>
<glyph name="I" format="1">
  <advance width="454"/>
  <unicode hex="0049"/>
  <outline>
    <contour>
      <point x="325" y="527" type="line"/>
      <point x="325" y="631"/>
      <point x="339" y="657"/>
      <point x="415" y="660" type="curve"/>
      <point x="415" y="700" type="line"/>
      <point x="40" y="700" type="line"/>
      <point x="40" y="660" type="line"/>
      <point x="117" y="658"/>
      <point x="129" y="631"/>
      <point x="129" y="524" type="curve" smooth="yes"/>
      <point x="129" y="178" type="line"/>
      <point x="129" y="59"/>
      <point x="115" y="43"/>
      <point x="31" y="40" type="curve"/>
      <point x="31" y="0" type="line"/>
      <point x="424" y="0" type="line"/>
      <point x="424" y="40" type="line"/>
      <point x="340" y="43"/>
      <point x="325" y="60"/>
      <point x="325" y="175" type="curve" smooth="yes"/>
    </contour>
    <contour>
      <point x="247" y="795" type="move" name="topcap"/>
    </contour>
    <contour>
      <point x="247" y="0" type="move" name="bottom"/>
    </contour>
  </outline>
</glyph>
<glyph name="J" format="1">
  <advance width="432"/>
  <unicode hex="004A"/>
  <outline>
    <contour>
      <point x="118" y="552" type="line"/>
      <point x="118" y="644"/>
      <point x="105" y="661"/>
      <point x="29" y="660" type="curve"/>
      <point x="29" y="700" type="line"/>
      <point x="403" y="700" type="line"/>
      <point x="403" y="660" type="line"/>
      <point x="326" y="662"/>
      <point x="315" y="646"/>
      <point x="315" y="545" type="curve"/>
      <point x="315" y="-2" type="line"/>
      <point x="315" y="-171"/>
      <point x="204" y="-259"/>
      <point x="13" y="-259" type="curve" smooth="yes"/>
      <point x="-116" y="-259"/>
      <point x="-187" y="-212"/>
      <point x="-187" y="-147" type="curve" smooth="yes"/>
      <point x="-187" y="-110"/>
      <point x="-157" y="-87"/>
      <point x="-120" y="-87" type="curve" smooth="yes"/>
      <point x="-90" y="-87"/>
      <point x="-76" y="-101"/>
      <point x="-47" y="-147" type="curve" smooth="yes"/>
      <point x="-22" y="-189"/>
      <point x="-2" y="-198"/>
      <point x="31" y="-198" type="curve" smooth="yes"/>
      <point x="86.0" y="-198.0"/>
      <point x="118.0" y="-137.234636872"/>
      <point x="118" y="-49" type="curve"/>
    </contour>
    <contour>
      <point x="196" y="795" type="move" name="topcap"/>
    </contour>
  </outline>
</glyph>
<glyph name="M" format="1">
  <advance width="1164"/>
  <unicode hex="004D"/>
  <outline>
    <contour>
      <point x="588" y="244" type="line"/>
      <point x="763" y="700" type="line"/>
      <point x="1108" y="700" type="line"/>
      <point x="1108" y="660" type="line"/>
      <point x="1029" y="652"/>
      <point x="1007" y="632"/>
      <point x="1007" y="516" type="curve" smooth="yes"/>
      <point x="1007" y="184" type="line"/>
      <point x="1007" y="58"/>
      <point x="1022" y="43"/>
      <point x="1118" y="40" type="curve"/>
      <point x="1118" y="0" type="line"/>
      <point x="703" y="0" type="line"/>
      <point x="703" y="40" type="line"/>
      <point x="794.679993928" y="42.8649998103"/>
      <point x="809" y="59.0"/>
      <point x="809" y="178" type="curve" smooth="yes"/>
      <point x="809" y="590" type="line"/>
      <point x="808" y="590" type="line"/>
      <point x="576" y="-9" type="line"/>
      <point x="481" y="-9" type="line"/>
      <point x="258" y="590" type="line"/>
      <point x="253" y="590" type="line"/>
      <point x="253" y="184" type="line"/>
      <point x="253.0" y="58.0"/>
      <point x="267.332129534" y="42.8673837898"/>
      <point x="361" y="40" type="curve"/>
      <point x="361" y="0" type="line"/>
      <point x="57" y="0" type="line"/>
      <point x="57" y="40" type="line"/>
      <point x="155" y="43"/>
      <point x="171" y="59"/>
      <point x="171" y="178" type="curve" smooth="yes"/>
      <point x="171" y="524" type="line"/>
      <point x="171" y="631"/>
      <point x="147" y="652"/>
      <point x="69" y="660" type="curve"/>
      <point x="69" y="700" type="line"/>
      <point x="423" y="700" type="line"/>
      <point x="584" y="244" type="line"/>
    </contour>
  </outline>
</glyph>
<glyph name="O" format="1">
  <advance width="924"/>
  <unicode hex="004F"/>
  <outline>
    <contour>
      <point x="462" y="710" type="curve" smooth="yes"/>
      <point x="236.56626506" y="710.0"/>
      <point x="57.0" y="553.0"/>
      <point x="57" y="355" type="curve" smooth="yes"/>
      <point x="57.0" y="149.0"/>
      <point x="235.590361446" y="-9.0"/>
      <point x="462" y="-9" type="curve" smooth="yes"/>
      <point x="688.423076923" y="-9.0"/>
      <point x="868.0" y="149.0"/>
      <point x="868" y="355" type="curve" smooth="yes"/>
      <point x="868.0" y="553.0"/>
      <point x="686.471153846" y="710.0"/>
    </contour>
    <contour>
      <point x="463" y="58" type="curve" smooth="yes"/>
      <point x="330.179487179" y="58.0"/>
      <point x="278.0" y="173.0"/>
      <point x="278" y="356" type="curve" smooth="yes"/>
      <point x="278.0" y="533.0"/>
      <point x="331.128205128" y="643.0"/>
      <point x="463" y="643" type="curve" smooth="yes"/>
      <point x="595.783505155" y="643.0"/>
      <point x="647.0" y="533.0"/>
      <point x="647" y="356" type="curve" smooth="yes"/>
      <point x="647.0" y="173.0"/>
      <point x="595.783505155" y="58.0"/>
    </contour>
    <contour>
      <point x="463" y="-94" type="move" name="topcap"/>
    </contour>
    <contour>
      <point x="463" y="701" type="move" name="bottom"/>
    </contour>
  </outline>
</glyph>
<glyph name="P" format="1">
  <advance width="765"/>
  <unicode hex="0050"/>
  <outline>
    <contour>
      <point x="735" y="488" type="curve" smooth="yes"/>
      <point x="735" y="623"/>
      <point x="633.0" y="700"/>
      <point x="409" y="700" type="curve" smooth="yes"/>
      <point x="40" y="700" type="line"/>
      <point x="40" y="660" type="line"/>
      <point x="116" y="658"/>
      <point x="127" y="641"/>
      <point x="127" y="552" type="curve" smooth="yes"/>
      <point x="127" y="148" type="line"/>
      <point x="127" y="59"/>
      <point x="112" y="43"/>
      <point x="29" y="40" type="curve"/>
      <point x="29" y="0" type="line"/>
      <point x="466" y="0" type="line"/>
      <point x="466" y="40" type="line"/>
      <point x="346" y="40"/>
      <point x="324" y="55"/>
      <point x="324" y="153" type="curve" smooth="yes"/>
      <point x="324" y="267" type="line"/>
      <point x="390" y="267" type="line"/>
      <point x="610.0" y="267.0"/>
      <point x="735" y="348"/>
    </contour>
    <contour>
      <point x="324" y="626" type="line"/>
      <point x="324" y="636"/>
      <point x="332" y="642"/>
      <point x="342" y="642" type="curve" smooth="yes"/>
      <point x="378" y="642" type="line"/>
      <point x="494.0" y="642.0"/>
      <point x="520.0" y="583.071895425"/>
      <point x="520" y="481" type="curve" smooth="yes"/>
      <point x="520.0" y="392.679245283"/>
      <point x="488.0" y="330"/>
      <point x="368" y="330" type="curve" smooth="yes"/>
      <point x="324" y="330" type="line"/>
    </contour>
  </outline>
</glyph>
<glyph name="T" format="1">
  <advance width="777"/>
  <unicode hex="0054"/>
  <outline>
    <contour>
      <point x="740" y="700" type="line"/>
      <point x="32" y="700" type="line"/>
      <point x="17" y="477" type="line"/>
      <point x="56" y="477" type="line"/>
      <point x="73" y="640"/>
      <point x="147" y="646"/>
      <point x="213" y="646" type="curve" smooth="yes"/>
      <point x="264" y="646"/>
      <point x="288" y="639"/>
      <point x="288" y="602" type="curve" smooth="yes"/>
      <point x="288" y="158" type="line"/>
      <point x="288" y="75"/>
      <point x="269" y="43"/>
      <point x="142" y="40" type="curve"/>
      <point x="142" y="0" type="line"/>
      <point x="630" y="0" type="line"/>
      <point x="630" y="40" type="line"/>
      <point x="503" y="43"/>
      <point x="484" y="75"/>
      <point x="484" y="158" type="curve"/>
      <point x="484" y="602" type="line"/>
      <point x="484" y="639"/>
      <point x="508" y="646"/>
      <point x="559" y="646" type="curve" smooth="yes"/>
      <point x="625" y="646"/>
      <point x="699" y="640"/>
      <point x="716" y="477" type="curve"/>
      <point x="755" y="477" type="line"/>
    </contour>
    <contour>
      <point x="389.0" y="795.0" type="move" name="topcap"/>
    </contour>
    <contour>
      <point x="389.0" y="0.0" type="move" name="bottom"/>
    </contour>
  </outline>
</glyph>
<glyph name="W" format="1">
  <advance width="1299"/>
  <unicode hex="0057"/>
  <outline>
    <contour>
      <point x="817" y="533" type="line" smooth="yes"/>
      <point x="807" y="563"/>
      <point x="803" y="586"/>
      <point x="803" y="606" type="curve" smooth="yes"/>
      <point x="803" y="649"/>
      <point x="828" y="659"/>
      <point x="871" y="659" type="curve"/>
      <point x="871" y="700" type="line"/>
      <point x="510" y="700" type="line"/>
      <point x="510" y="659" type="line"/>
      <point x="572.354494419" y="650.866805076"/>
      <point x="586.316631347" y="636.232337599"/>
      <point x="602" y="585" type="curve"/>
      <point x="456" y="220" type="line"/>
      <point x="349" y="525" type="line" smooth="yes"/>
      <point x="326" y="592"/>
      <point x="320" y="609"/>
      <point x="320" y="622" type="curve" smooth="yes"/>
      <point x="320" y="647"/>
      <point x="336" y="659"/>
      <point x="400" y="659" type="curve"/>
      <point x="400" y="700" type="line"/>
      <point x="-5" y="700" type="line"/>
      <point x="-5" y="659" type="line"/>
      <point x="56" y="659"/>
      <point x="86" y="652"/>
      <point x="140" y="517" type="curve" smooth="yes"/>
      <point x="352" y="-9" type="line"/>
      <point x="455" y="-9" type="line"/>
      <point x="641" y="440" type="line"/>
      <point x="817" y="-9" type="line"/>
      <point x="927" y="-9" type="line"/>
      <point x="1162" y="583" type="line" smooth="yes"/>
      <point x="1185" y="640"/>
      <point x="1218" y="660"/>
      <point x="1270" y="660" type="curve"/>
      <point x="1270" y="700" type="line"/>
      <point x="984" y="700" type="line"/>
      <point x="984" y="660" type="line"/>
      <point x="1041" y="660"/>
      <point x="1066" y="648"/>
      <point x="1066" y="613" type="curve" smooth="yes"/>
      <point x="1066.0" y="591.034482759"/>
      <point x="1060.61345551" y="561.033638769"/>
      <point x="1045" y="522" type="curve" smooth="yes"/>
      <point x="925" y="222" type="line"/>
    </contour>
    <contour>
      <point x="635.0" y="795.0" type="move" name="topcap"/>
    </contour>
  </outline>
</glyph>
<glyph name="Z" format="1">
  <advance width="809"/>
  <unicode hex="005A"/>
  <outline>
    <contour>
      <point x="739" y="253" type="line"/>
      <point x="692" y="253" type="line"/>
      <point x="669" y="104"/>
      <point x="640" y="59"/>
      <point x="499" y="59" type="curve" smooth="yes"/>
      <point x="290" y="59" type="line"/>
      <point x="722" y="656" type="line"/>
      <point x="722" y="700" type="line"/>
      <point x="114" y="700" type="line"/>
      <point x="98" y="496" type="line"/>
      <point x="137" y="496" type="line"/>
      <point x="155" y="596"/>
      <point x="200" y="646"/>
      <point x="297" y="646" type="curve" smooth="yes"/>
      <point x="472" y="646" type="line"/>
      <point x="48" y="46" type="line"/>
      <point x="48" y="0" type="line"/>
      <point x="726" y="0" type="line"/>
    </contour>
    <contour>
      <point x="494.0" y="795.0" type="move" name="topcap"/>
    </contour>
    <contour>
      <point x="491.0" y="0.0" type="move" name="bottom"/>
    </contour>
  </outline>
</glyph>
<glyph name="backslash" format="1">
  <advance width="465"/>
  <unicode hex="005C"/>
  <outline>
    <contour>
      <point x="371" y="0" type="line"/>
      <point x="445" y="0" type="line"/>
      <point x="82" y="737" type="line"/>
      <point x="18" y="737" type="line"/>
    </contour>
  </outline>
</glyph>
<glyph name="asciicircum" format="1">
  <advance width="477"/>
  <unicode hex="005E"/>
  <outline>
    <contour>
      <point x="193" y="394" type="line"/>
      <point x="55" y="221" type="line"/>
      <point x="116" y="221" type="line"/>
      <point x="238" y="306" type="line"/>
      <point x="361" y="221" type="line"/>
      <point x="421" y="221" type="line"/>
      <point x="284" y="394" type="line"/>
    </contour>
  </outline>
</glyph>
<glyph name="underscore" format="1">
  <advance width="702"/>
  <unicode hex="005F"/>
  <outline>
    <contour>
      <point x="644" y="-145" type="line"/>
      <point x="644" y="-65" type="line"/>
      <point x="58" y="-65" type="line"/>
      <point x="58" y="-145" type="line"/>
    </contour>
  </outline>
</glyph>
<glyph name="grave" format="1">
  <advance width="297"/>
  <unicode hex="0060"/>
  <outline>
    <contour>
      <point x="284" y="623" type="line"/>
      <point x="164" y="737" type="line"/>
      <point x="130" y="768"/>
      <point x="102" y="783"/>
      <point x="74" y="783" type="curve" smooth="yes"/>
      <point x="38" y="783"/>
      <point x="14" y="765"/>
      <point x="14" y="735" type="curve" smooth="yes"/>
      <point x="14" y="713"/>
      <point x="44" y="698"/>
      <point x="88" y="678" type="curve" smooth="yes"/>
      <point x="216" y="623" type="line"/>
    </contour>
    <contour>
      <point x="160" y="623" type="move" name="_top"/>
    </contour>
  </outline>
</glyph>
<glyph name="b" format="1">
  <advance width="684"/>
  <unicode hex="0062"/>
  <outline>
    <contour>
      <point x="274" y="795" type="line"/>
      <point x="-1" y="756" type="line"/>
      <point x="-1" y="720" type="line"/>
      <point x="77" y="706"/>
      <point x="79" y="704"/>
      <point x="79" y="598" type="curve"/>
      <point x="79" y="0" type="line"/>
      <point x="112" y="0" type="line"/>
      <point x="246" y="65" type="line"/>
      <point x="308" y="6"/>
      <point x="347" y="-9"/>
      <point x="416" y="-9" type="curve" smooth="yes"/>
      <point x="550" y="-9"/>
      <point x="662" y="87"/>
      <point x="662" y="256" type="curve" smooth="yes"/>
      <point x="662" y="416"/>
      <point x="564" y="517"/>
      <point x="431" y="517" type="curve" smooth="yes"/>
      <point x="363" y="517"/>
      <point x="306" y="488"/>
      <point x="278" y="443" type="curve"/>
      <point x="274" y="443" type="line"/>
    </contour>
    <contour>
      <point x="276" y="263" type="line"/>
      <point x="276" y="374"/>
      <point x="289" y="450"/>
      <point x="363" y="450" type="curve" smooth="yes"/>
      <point x="434" y="450"/>
      <point x="455" y="387"/>
      <point x="455" y="254" type="curve" smooth="yes"/>
      <point x="455" y="115"/>
      <point x="430" y="50"/>
      <point x="361" y="50" type="curve" smooth="yes"/>
      <point x="288" y="50"/>
      <point x="276" y="120"/>
      <point x="276" y="215" type="curve" smooth="yes"/>
    </contour>
  </outline>
</glyph>
<glyph name="d" format="1">
  <advance width="717"/>
  <unicode hex="0064"/>
  <outline>
    <contour>
      <point x="474" y="-9" type="line"/>
      <point x="695" y="1" type="line"/>
      <point x="695" y="41" type="line"/>
      <point x="643" y="41"/>
      <point x="633" y="45"/>
      <point x="627" y="79" type="curve" smooth="yes"/>
      <point x="623" y="109"/>
      <point x="622" y="152"/>
      <point x="622" y="249" type="curve" smooth="yes"/>
      <point x="622" y="795" type="line"/>
      <point x="313" y="755" type="line"/>
      <point x="313" y="721" type="line"/>
      <point x="380" y="721"/>
      <point x="414" y="710"/>
      <point x="420" y="682" type="curve" smooth="yes"/>
      <point x="424" y="667"/>
      <point x="426" y="604"/>
      <point x="426" y="528" type="curve"/>
      <point x="426" y="454" type="line"/>
      <point x="423" y="454" type="line"/>
      <point x="393" y="493"/>
      <point x="349" y="517"/>
      <point x="292" y="517" type="curve"/>
      <point x="142" y="517"/>
      <point x="44" y="400"/>
      <point x="44" y="248" type="curve" smooth="yes"/>
      <point x="44" y="80"/>
      <point x="154" y="-9"/>
      <point x="305" y="-9" type="curve"/>
      <point x="369" y="-9"/>
      <point x="422" y="9"/>
      <point x="469" y="52" type="curve"/>
      <point x="474" y="52" type="line"/>
    </contour>
    <contour>
      <point x="424" y="242" type="line"/>
      <point x="424" y="85"/>
      <point x="388" y="49"/>
      <point x="332" y="49" type="curve"/>
      <point x="271" y="49"/>
      <point x="250" y="118"/>
      <point x="250" y="248" type="curve" smooth="yes"/>
      <point x="250" y="386"/>
      <point x="272" y="450"/>
      <point x="339" y="450" type="curve"/>
      <point x="412" y="450"/>
      <point x="424" y="369"/>
      <point x="424" y="267" type="curve" smooth="yes"/>
    </contour>
    <contour>
      <point x="305" y="0" type="move" name="bottom"/>
    </contour>
  </outline>
</glyph>
<glyph name="e" format="1">
  <advance width="575"/>
  <unicode hex="0065"/>
  <outline>
    <contour>
      <point x="173" y="323" type="line"/>
      <point x="176" y="265" type="line"/>
      <point x="513" y="265" type="line"/>
      <point x="536.0" y="265.0"/>
      <point x="545.0" y="278.0"/>
      <point x="545" y="304" type="curve" smooth="yes"/>
      <point x="545" y="436"/>
      <point x="470" y="517"/>
      <point x="320" y="517" type="curve"/>
      <point x="138" y="517"/>
      <point x="32" y="408"/>
      <point x="32" y="254" type="curve"/>
      <point x="32.0" y="88.2178988327"/>
      <point x="138.0" y="-9.0"/>
      <point x="310" y="-9" type="curve"/>
      <point x="394" y="-9"/>
      <point x="482" y="18"/>
      <point x="538" y="69" type="curve"/>
      <point x="516" y="111" type="line"/>
      <point x="466" y="81"/>
      <point x="423" y="62"/>
      <point x="362" y="62" type="curve"/>
      <point x="261.0" y="62.0"/>
      <point x="238.0" y="136.170854271"/>
      <point x="238" y="267" type="curve"/>
      <point x="238.0" y="371.0"/>
      <point x="242.181818182" y="458.0"/>
      <point x="307" y="458" type="curve"/>
      <point x="344.966101695" y="458.0"/>
      <point x="363.0" y="416.0"/>
      <point x="363" y="361" type="curve" smooth="yes"/>
      <point x="363.0" y="327.956521739"/>
      <point x="352.0" y="323"/>
      <point x="300" y="323" type="curve" smooth="yes"/>
    </contour>
    <contour>
      <point x="300" y="623" type="move" name="top"/>
    </contour>
    <contour>
      <point x="299" y="0" type="move" name="bottom"/>
    </contour>
  </outline>
</glyph>
<glyph name="f" format="1">
  <advance width="474"/>
  <unicode hex="0066"/>
  <outline>
    <contour>
      <point x="13" y="459" type="line"/>
      <point x="114" y="459" type="line"/>
      <point x="114" y="154" type="line"/>
      <point x="114" y="57"/>
      <point x="104" y="44"/>
      <point x="26" y="41" type="curve"/>
      <point x="26" y="0" type="line"/>
      <point x="418" y="0" type="line"/>
      <point x="418" y="41" type="line"/>
      <point x="332" y="43"/>
      <point x="311" y="65"/>
      <point x="311" y="162" type="curve" smooth="yes"/>
      <point x="311" y="459" type="line"/>
      <point x="469" y="459" type="line"/>
      <point x="469" y="515" type="line"/>
      <point x="311" y="515" type="line"/>
      <point x="311" y="623" type="line"/>
      <point x="311" y="702"/>
      <point x="334" y="737"/>
      <point x="371" y="737" type="curve" smooth="yes"/>
      <point x="402" y="737"/>
      <point x="413" y="715"/>
      <point x="422" y="698" type="curve" smooth="yes"/>
      <point x="434" y="676"/>
      <point x="448" y="638"/>
      <point x="496" y="638" type="curve" smooth="yes"/>
      <point x="533" y="638"/>
      <point x="557" y="660"/>
      <point x="557" y="699" type="curve" smooth="yes"/>
      <point x="557" y="757"/>
      <point x="491" y="795"/>
      <point x="387" y="795" type="curve" smooth="yes"/>
      <point x="236" y="795"/>
      <point x="114" y="735"/>
      <point x="114" y="575" type="curve" smooth="yes"/>
      <point x="114" y="515" type="line"/>
      <point x="13" y="515" type="line"/>
    </contour>
  </outline>
</glyph>
<glyph name="g" format="1">
  <advance width="675"/>
  <unicode hex="0067"/>
  <outline>
    <contour>
      <point x="626" y="-35" type="curve" smooth="yes"/>
      <point x="626" y="54"/>
      <point x="581" y="110"/>
      <point x="431" y="121" type="curve" smooth="yes"/>
      <point x="295" y="131" type="line" smooth="yes"/>
      <point x="261" y="133"/>
      <point x="249" y="134"/>
      <point x="249" y="146" type="curve"/>
      <point x="249" y="157"/>
      <point x="262" y="160"/>
      <point x="319" y="166" type="curve" smooth="yes"/>
      <point x="470" y="182"/>
      <point x="581" y="234"/>
      <point x="581" y="347" type="curve" smooth="yes"/>
      <point x="581" y="454"/>
      <point x="457" y="517"/>
      <point x="328" y="517" type="curve" smooth="yes"/>
      <point x="158" y="517"/>
      <point x="59" y="445"/>
      <point x="59" y="345" type="curve"/>
      <point x="59" y="261"/>
      <point x="111" y="209"/>
      <point x="212" y="191" type="curve"/>
      <point x="212" y="187" type="line"/>
      <point x="138" y="157"/>
      <point x="86" y="126"/>
      <point x="86" y="76" type="curve"/>
      <point x="86" y="30"/>
      <point x="116.068012027" y="-7.58491333571"/>
      <point x="212" y="-16" type="curve" smooth="yes"/>
      <point x="383" y="-31" type="line" smooth="yes"/>
      <point x="460" y="-38"/>
      <point x="495" y="-45"/>
      <point x="495" y="-86" type="curve"/>
      <point x="495" y="-137"/>
      <point x="430" y="-177"/>
      <point x="308" y="-177" type="curve"/>
      <point x="238" y="-177"/>
      <point x="185" y="-164"/>
      <point x="185" y="-125" type="curve"/>
      <point x="185" y="-101"/>
      <point x="206" y="-84"/>
      <point x="241" y="-73" type="curve"/>
      <point x="215" y="-44"/>
      <point x="168" y="-27"/>
      <point x="124" y="-27" type="curve" smooth="yes"/>
      <point x="65" y="-27"/>
      <point x="17" y="-58"/>
      <point x="17" y="-108" type="curve"/>
      <point x="17" y="-196"/>
      <point x="123" y="-249"/>
      <point x="304" y="-249" type="curve"/>
      <point x="511" y="-249"/>
      <point x="626" y="-142"/>
    </contour>
    <contour>
      <point x="702" y="466" type="curve"/>
      <point x="702" y="504"/>
      <point x="679" y="533"/>
      <point x="613" y="533" type="curve"/>
      <point x="557" y="533"/>
      <point x="503" y="505"/>
      <point x="456" y="470" type="curve"/>
      <point x="477" y="445"/>
      <point x="490" y="430"/>
      <point x="511" y="404" type="curve"/>
      <point x="533" y="447"/>
      <point x="546" y="455"/>
      <point x="563" y="455" type="curve" smooth="yes"/>
      <point x="597" y="455"/>
      <point x="597" y="403"/>
      <point x="647" y="403" type="curve" smooth="yes"/>
      <point x="676" y="403"/>
      <point x="702" y="425"/>
    </contour>
    <contour>
      <point x="392" y="345" type="curve"/>
      <point x="392" y="274"/>
      <point x="366" y="230"/>
      <point x="322" y="230" type="curve"/>
      <point x="278" y="230"/>
      <point x="252" y="274"/>
      <point x="252" y="345" type="curve"/>
      <point x="252" y="416"/>
      <point x="278" y="460"/>
      <point x="322" y="460" type="curve"/>
      <point x="366" y="460"/>
      <point x="392" y="416"/>
    </contour>
  </outline>
</glyph>
<glyph name="i" format="1">
  <advance width="400"/>
  <unicode hex="0069"/>
  <outline>
    <contour>
      <point x="304" y="517" type="line"/>
      <point x="22" y="480" type="line"/>
      <point x="22" y="448" type="line"/>
      <point x="77" y="448"/>
      <point x="94" y="442"/>
      <point x="101" y="409" type="curve" smooth="yes"/>
      <point x="104" y="392"/>
      <point x="107" y="342"/>
      <point x="107" y="268" type="curve" smooth="yes"/>
      <point x="107" y="153" type="line"/>
      <point x="107" y="62"/>
      <point x="95" y="44"/>
      <point x="25" y="41" type="curve"/>
      <point x="25" y="0" type="line"/>
      <point x="384" y="0" type="line"/>
      <point x="384" y="41" type="line"/>
      <point x="311" y="44"/>
      <point x="304" y="57"/>
      <point x="304" y="160" type="curve" smooth="yes"/>
    </contour>
    <contour>
      <point x="83" y="691" type="curve" smooth="yes"/>
      <point x="83" y="630"/>
      <point x="132" y="580"/>
      <point x="194" y="580" type="curve" smooth="yes"/>
      <point x="259" y="580"/>
      <point x="310" y="630"/>
      <point x="310" y="691" type="curve" smooth="yes"/>
      <point x="310" y="756"/>
      <point x="259" y="806"/>
      <point x="194" y="806" type="curve" smooth="yes"/>
      <point x="132" y="806"/>
      <point x="83" y="756"/>
    </contour>
    <contour>
      <point x="225" y="623" type="move" name="top"/>
    </contour>
    <contour>
      <point x="230" y="0" type="move" name="bottom"/>
    </contour>
  </outline>
</glyph>
<glyph name="j" format="1">
  <advance width="367"/>
  <unicode hex="006A"/>
  <outline>
    <contour>
      <point x="299" y="517" type="line"/>
      <point x="14" y="480" type="line"/>
      <point x="14" y="448" type="line"/>
      <point x="73" y="448"/>
      <point x="87" y="440"/>
      <point x="93" y="411" type="curve" smooth="yes"/>
      <point x="97" y="395"/>
      <point x="102" y="350"/>
      <point x="102" y="282" type="curve" smooth="yes"/>
      <point x="102" y="-80" type="line"/>
      <point x="102.0" y="-161.0"/>
      <point x="74" y="-204"/>
      <point x="42" y="-204" type="curve"/>
      <point x="14" y="-204"/>
      <point x="5" y="-169"/>
      <point x="-1" y="-154" type="curve" smooth="yes"/>
      <point x="-12" y="-126"/>
      <point x="-22" y="-75"/>
      <point x="-82" y="-75" type="curve"/>
      <point x="-128" y="-75"/>
      <point x="-154" y="-105"/>
      <point x="-154" y="-144" type="curve"/>
      <point x="-154" y="-212"/>
      <point x="-93" y="-260"/>
      <point x="28" y="-260" type="curve" smooth="yes"/>
      <point x="204" y="-260"/>
      <point x="299" y="-172"/>
      <point x="299" y="13" type="curve" smooth="yes"/>
    </contour>
    <contour>
      <point x="65" y="691" type="curve" smooth="yes"/>
      <point x="65" y="630"/>
      <point x="116" y="580"/>
      <point x="178" y="580" type="curve" smooth="yes"/>
      <point x="243" y="580"/>
      <point x="292" y="630"/>
      <point x="292" y="691" type="curve" smooth="yes"/>
      <point x="292" y="756"/>
      <point x="243" y="806"/>
      <point x="178" y="806" type="curve" smooth="yes"/>
      <point x="116" y="806"/>
      <point x="65" y="756"/>
    </contour>
    <contour>
      <point x="176.0" y="623.0" type="move" name="top"/>
    </contour>
  </outline>
</glyph>
<glyph name="l" format="1">
  <advance width="396"/>
  <unicode hex="006C"/>
  <outline>
    <contour>
      <point x="23" y="758" type="line"/>
      <point x="23" y="721" type="line"/>
      <point x="59" y="721"/>
      <point x="77" y="718"/>
      <point x="89" y="694" type="curve" smooth="yes"/>
      <point x="99" y="669"/>
      <point x="100" y="630"/>
      <point x="100" y="561" type="curve"/>
      <point x="100" y="154" type="line"/>
      <point x="101" y="63"/>
      <point x="88" y="44"/>
      <point x="17" y="41" type="curve"/>
      <point x="17" y="0" type="line"/>
      <point x="379" y="0" type="line"/>
      <point x="379" y="41" type="line"/>
      <point x="307" y="44"/>
      <point x="298" y="58"/>
      <point x="297" y="161" type="curve"/>
      <point x="297" y="795" type="line"/>
    </contour>
    <contour>
      <point x="237" y="795" type="move" name="topcap"/>
    </contour>
    <contour>
      <point x="238" y="0" type="move" name="bottom"/>
    </contour>
  </outline>
</glyph>
<glyph name="n" format="1">
  <advance width="769"/>
  <unicode hex="006E"/>
  <outline>
    <contour>
      <point x="275" y="437" type="line"/>
      <point x="263" y="517" type="line"/>
      <point x="20" y="480" type="line"/>
      <point x="20" y="447" type="line"/>
      <point x="80" y="447"/>
      <point x="97" y="440"/>
      <point x="105" y="407" type="curve"/>
      <point x="108" y="391"/>
      <point x="112" y="344"/>
      <point x="111" y="268" type="curve"/>
      <point x="111" y="152" type="line"/>
      <point x="112" y="57"/>
      <point x="101" y="45"/>
      <point x="24" y="42" type="curve"/>
      <point x="24" y="0" type="line"/>
      <point x="379" y="0" type="line"/>
      <point x="379" y="41" type="line"/>
      <point x="315" y="45"/>
      <point x="309" y="56"/>
      <point x="308" y="159" type="curve"/>
      <point x="308" y="320" type="line"/>
      <point x="309" y="397"/>
      <point x="328" y="450"/>
      <point x="399" y="450" type="curve"/>
      <point x="458" y="450"/>
      <point x="482" y="408"/>
      <point x="482" y="309" type="curve"/>
      <point x="482" y="151" type="line"/>
      <point x="482" y="58"/>
      <point x="471" y="44"/>
      <point x="408" y="41" type="curve"/>
      <point x="408" y="0" type="line"/>
      <point x="761" y="0" type="line"/>
      <point x="761" y="41" type="line"/>
      <point x="688" y="45"/>
      <point x="679" y="55"/>
      <point x="679" y="159" type="curve"/>
      <point x="679" y="295" type="line"/>
      <point x="679" y="467"/>
      <point x="579" y="517"/>
      <point x="468" y="517" type="curve"/>
      <point x="386" y="517"/>
      <point x="316" y="486"/>
      <point x="280" y="437" type="curve"/>
    </contour>
    <contour>
      <point x="395.0" y="623.0" type="move" name="top"/>
    </contour>
    <contour>
      <point x="395.0" y="0.0" type="move" name="bottom"/>
    </contour>
  </outline>
</glyph>
<glyph name="p" format="1">
  <advance width="736"/>
  <unicode hex="0070"/>
  <outline>
    <contour>
      <point x="431" y="517" type="curve"/>
      <point x="364" y="517"/>
      <point x="309" y="496"/>
      <point x="263" y="448" type="curve"/>
      <point x="259" y="448" type="line"/>
      <point x="259" y="513" type="line"/>
      <point x="17" y="491" type="line"/>
      <point x="17" y="451" type="line"/>
      <point x="66" y="451"/>
      <point x="86" y="442"/>
      <point x="91" y="413" type="curve" smooth="yes"/>
      <point x="95" y="389"/>
      <point x="98" y="323"/>
      <point x="98" y="273" type="curve" smooth="yes"/>
      <point x="98" y="-83" type="line"/>
      <point x="98" y="-174"/>
      <point x="85" y="-194"/>
      <point x="19" y="-196" type="curve"/>
      <point x="19" y="-240" type="line"/>
      <point x="412" y="-240" type="line"/>
      <point x="412" y="-196" type="line"/>
      <point x="310" y="-193"/>
      <point x="295" y="-178"/>
      <point x="295" y="-76" type="curve"/>
      <point x="295" y="54" type="line"/>
      <point x="297" y="54" type="line"/>
      <point x="328" y="10"/>
      <point x="371" y="-9"/>
      <point x="439" y="-9" type="curve"/>
      <point x="590" y="-9"/>
      <point x="694" y="88"/>
      <point x="694" y="254" type="curve" smooth="yes"/>
      <point x="694" y="415"/>
      <point x="590" y="517"/>
    </contour>
    <contour>
      <point x="394" y="458" type="curve"/>
      <point x="460" y="458"/>
      <point x="488" y="393"/>
      <point x="488" y="254" type="curve" smooth="yes"/>
      <point x="488" y="118"/>
      <point x="467" y="62"/>
      <point x="394" y="62" type="curve"/>
      <point x="311" y="62"/>
      <point x="296" y="132"/>
      <point x="296" y="223" type="curve"/>
      <point x="296" y="299" type="line" smooth="yes"/>
      <point x="296" y="386"/>
      <point x="305" y="458"/>
    </contour>
  </outline>
</glyph>
<glyph name="q" format="1">
  <advance width="700"/>
  <unicode hex="0071"/>
  <outline>
    <contour>
      <point x="427" y="-86" type="line"/>
      <point x="427" y="-174"/>
      <point x="399" y="-197"/>
      <point x="301" y="-199" type="curve"/>
      <point x="301" y="-240" type="line"/>
      <point x="713" y="-240" type="line"/>
      <point x="713" y="-199" type="line"/>
      <point x="631" y="-196"/>
      <point x="624" y="-186"/>
      <point x="624" y="-79" type="curve"/>
      <point x="624" y="508" type="line"/>
      <point x="576" y="508" type="line"/>
      <point x="476" y="456" type="line"/>
      <point x="432" y="495"/>
      <point x="370" y="517"/>
      <point x="304" y="517" type="curve"/>
      <point x="150" y="517"/>
      <point x="25" y="419"/>
      <point x="25" y="253" type="curve" smooth="yes"/>
      <point x="25" y="92"/>
      <point x="128" y="-9"/>
      <point x="284" y="-9" type="curve" smooth="yes"/>
      <point x="351" y="-9"/>
      <point x="394" y="13"/>
      <point x="423" y="52" type="curve"/>
      <point x="427" y="52" type="line"/>
    </contour>
    <contour>
      <point x="333" y="62" type="curve"/>
      <point x="261" y="62"/>
      <point x="233" y="127"/>
      <point x="233" y="266" type="curve" smooth="yes"/>
      <point x="233" y="402"/>
      <point x="254" y="457"/>
      <point x="327" y="457" type="curve"/>
      <point x="410" y="457"/>
      <point x="425" y="388"/>
      <point x="425" y="297" type="curve"/>
      <point x="425" y="221" type="line" smooth="yes"/>
      <point x="425" y="134"/>
      <point x="416" y="62"/>
    </contour>
  </outline>
</glyph>
<glyph name="w" format="1">
  <advance width="966"/>
  <unicode hex="0077"/>
  <outline>
    <contour>
      <point x="367" y="-9" type="line"/>
      <point x="250" y="-9" type="line"/>
      <point x="102" y="382" type="line" smooth="yes"/>
      <point x="81" y="438"/>
      <point x="55" y="462"/>
      <point x="17" y="467" type="curve"/>
      <point x="17" y="508" type="line"/>
      <point x="344" y="508" type="line"/>
      <point x="344" y="467" type="line"/>
      <point x="294" y="465"/>
      <point x="274" y="455"/>
      <point x="274" y="426" type="curve" smooth="yes"/>
      <point x="274" y="414"/>
      <point x="278" y="397"/>
      <point x="285" y="375" type="curve" smooth="yes"/>
      <point x="351" y="166" type="line"/>
      <point x="355" y="166" type="line"/>
      <point x="478" y="508" type="line"/>
      <point x="580" y="508" type="line"/>
      <point x="704" y="164" type="line"/>
      <point x="710" y="164" type="line"/>
      <point x="774" y="371" type="line" smooth="yes"/>
      <point x="780" y="389"/>
      <point x="785" y="408"/>
      <point x="785" y="422" type="curve" smooth="yes"/>
      <point x="785" y="455"/>
      <point x="756" y="467"/>
      <point x="727" y="467" type="curve"/>
      <point x="727" y="508" type="line"/>
      <point x="941" y="508" type="line"/>
      <point x="941" y="467" type="line"/>
      <point x="893" y="467"/>
      <point x="870" y="460"/>
      <point x="822" y="305" type="curve" smooth="yes"/>
      <point x="725" y="-9" type="line"/>
      <point x="612" y="-9" type="line"/>
      <point x="492" y="322" type="line"/>
      <point x="488" y="322" type="line"/>
    </contour>
    <contour>
      <point x="543.0" y="623.0" type="move" name="top"/>
    </contour>
  </outline>
</glyph>
<glyph name="y" format="1">
  <advance width="677"/>
  <unicode hex="0079"/>
  <outline>
    <contour>
      <point x="177" y="-260" type="curve" smooth="yes"/>
      <point x="232" y="-260"/>
      <point x="294" y="-230"/>
      <point x="332" y="-153" type="curve" smooth="yes"/>
      <point x="557" y="308" type="line" smooth="yes"/>
      <point x="625" y="448"/>
      <point x="647" y="467"/>
      <point x="698" y="467" type="curve"/>
      <point x="698" y="508" type="line"/>
      <point x="450" y="508" type="line"/>
      <point x="450" y="467" type="line"/>
      <point x="502" y="467"/>
      <point x="523" y="460"/>
      <point x="523" y="429" type="curve" smooth="yes"/>
      <point x="523" y="407"/>
      <point x="505" y="366"/>
      <point x="473" y="302" type="curve" smooth="yes"/>
      <point x="402" y="159" type="line"/>
      <point x="403" y="159" type="line"/>
      <point x="298" y="407" type="line" smooth="yes"/>
      <point x="293" y="419"/>
      <point x="291" y="428"/>
      <point x="291" y="436" type="curve" smooth="yes"/>
      <point x="291" y="460"/>
      <point x="314" y="467"/>
      <point x="362" y="467" type="curve"/>
      <point x="362" y="508" type="line"/>
      <point x="12" y="508" type="line"/>
      <point x="12" y="467" type="line"/>
      <point x="62" y="466"/>
      <point x="76" y="450"/>
      <point x="110" y="382" type="curve" smooth="yes"/>
      <point x="317" y="-34" type="line"/>
      <point x="303" y="-62" type="line" smooth="yes"/>
      <point x="284" y="-101"/>
      <point x="223" y="-90"/>
      <point x="163" y="-98" type="curve" smooth="yes"/>
      <point x="113" y="-105"/>
      <point x="82" y="-139"/>
      <point x="82" y="-179" type="curve" smooth="yes"/>
      <point x="82" y="-225"/>
      <point x="116" y="-260"/>
    </contour>
    <contour>
      <point x="414.0" y="623.0" type="move" name="top"/>
    </contour>
  </outline>
</glyph>
<glyph name="braceleft" format="1">
  <advance width="395"/>
  <unicode hex="007B"/>
  <outline>
    <contour>
      <point x="288" y="190" type="line"/>
      <point x="288" y="266"/>
      <point x="264" y="312"/>
      <point x="154" y="326" type="curve"/>
      <point x="154" y="330" type="line"/>
      <point x="273" y="347"/>
      <point x="288" y="401"/>
      <point x="288" y="479" type="curve" smooth="yes"/>
      <point x="288" y="645" type="line"/>
      <point x="288" y="708"/>
      <point x="309" y="744"/>
      <point x="372" y="759" type="curve"/>
      <point x="372" y="795" type="line"/>
      <point x="192" y="795"/>
      <point x="107" y="752"/>
      <point x="107" y="630" type="curve" smooth="yes"/>
      <point x="107" y="470" type="line"/>
      <point x="107" y="397"/>
      <point x="91" y="362"/>
      <point x="14" y="346" type="curve"/>
      <point x="14" y="308" type="line"/>
      <point x="85" y="304"/>
      <point x="107" y="241"/>
      <point x="107" y="185" type="curve" smooth="yes"/>
      <point x="107" y="4" type="line"/>
      <point x="107" y="-112"/>
      <point x="205" y="-143"/>
      <point x="377" y="-143" type="curve"/>
      <point x="377" y="-108" type="line"/>
      <point x="306" y="-91"/>
      <point x="288" y="-57"/>
      <point x="288" y="8" type="curve" smooth="yes"/>
    </contour>
  </outline>
</glyph>
<glyph name="braceright" format="1">
  <advance width="395"/>
  <unicode hex="007D"/>
  <outline>
    <contour>
      <point x="107" y="8" type="line"/>
      <point x="107" y="-57"/>
      <point x="88" y="-91"/>
      <point x="19" y="-108" type="curve"/>
      <point x="19" y="-143" type="line"/>
      <point x="190" y="-143"/>
      <point x="290" y="-112"/>
      <point x="290" y="4" type="curve" smooth="yes"/>
      <point x="290" y="185" type="line"/>
      <point x="290" y="241"/>
      <point x="310" y="304"/>
      <point x="381" y="308" type="curve"/>
      <point x="381" y="346" type="line"/>
      <point x="304" y="362"/>
      <point x="290" y="397"/>
      <point x="290" y="470" type="curve" smooth="yes"/>
      <point x="290" y="630" type="line"/>
      <point x="290" y="752"/>
      <point x="203" y="795"/>
      <point x="23" y="795" type="curve"/>
      <point x="23" y="759" type="line"/>
      <point x="88" y="744"/>
      <point x="107" y="708"/>
      <point x="107" y="645" type="curve" smooth="yes"/>
      <point x="107" y="479" type="line"/>
      <point x="107" y="401"/>
      <point x="122" y="347"/>
      <point x="241" y="330" type="curve"/>
      <point x="241" y="326" type="line"/>
      <point x="131" y="312"/>
      <point x="107" y="266"/>
      <point x="107" y="190" type="curve" smooth="yes"/>
    </contour>
  </outline>
</glyph>
<glyph name="cent" format="1">
  <advance width="574"/>
  <unicode hex="00A2"/>
  <outline>
    <contour>
      <point x="287" y="456" type="curve"/>
      <point x="287" y="82" type="line"/>
      <point x="244" y="105"/>
      <point x="222" y="189"/>
      <point x="222" y="272" type="curve" smooth="yes"/>
      <point x="222" y="361"/>
      <point x="244" y="435"/>
    </contour>
    <contour>
      <point x="354" y="0" type="line"/>
      <point x="422" y="10"/>
      <point x="488" y="37"/>
      <point x="533" y="79" type="curve"/>
      <point x="511" y="120" type="line"/>
      <point x="463" y="89"/>
      <point x="418" y="67"/>
      <point x="354" y="68" type="curve"/>
      <point x="354" y="456" type="line"/>
      <point x="372.288223565" y="437.276342541"/>
      <point x="379.958697251" y="405.849305764"/>
      <point x="389.890692416" y="376.331909092" type="curve" smooth="yes"/>
      <point x="402.768118596" y="338.060837636"/>
      <point x="419.447314918" y="303.0"/>
      <point x="468" y="303" type="curve" smooth="yes"/>
      <point x="513" y="303"/>
      <point x="542" y="337"/>
      <point x="542" y="384" type="curve" smooth="yes"/>
      <point x="542" y="453"/>
      <point x="458" y="507"/>
      <point x="354" y="515" type="curve"/>
      <point x="354" y="654" type="line"/>
      <point x="287" y="654" type="line"/>
      <point x="287" y="516" type="line"/>
      <point x="139" y="498"/>
      <point x="38" y="396"/>
      <point x="38" y="253" type="curve" smooth="yes"/>
      <point x="38" y="93"/>
      <point x="137" y="7"/>
      <point x="287" y="-3" type="curve"/>
      <point x="287" y="-141" type="line"/>
      <point x="354" y="-141" type="line"/>
    </contour>
  </outline>
</glyph>
<glyph name="yen" format="1">
  <advance width="878"/>
  <unicode hex="00A5"/>
  <outline>
    <contour>
      <point x="245" y="0" type="line"/>
      <point x="637" y="0" type="line"/>
      <point x="637" y="40" type="line"/>
      <point x="566" y="40"/>
      <point x="542" y="54"/>
      <point x="540" y="160" type="curve"/>
      <point x="691" y="160" type="line"/>
      <point x="691" y="226" type="line"/>
      <point x="540" y="226" type="line"/>
      <point x="540" y="284" type="line"/>
      <point x="691" y="284" type="line"/>
      <point x="691" y="348" type="line"/>
      <point x="583" y="348" type="line"/>
      <point x="676" y="508" type="line"/>
      <point x="769" y="667"/>
      <point x="799" y="697"/>
      <point x="855" y="697" type="curve"/>
      <point x="855" y="737" type="line"/>
      <point x="610" y="737" type="line"/>
      <point x="610" y="697" type="line"/>
      <point x="663" y="697"/>
      <point x="679" y="692"/>
      <point x="679" y="671" type="curve" smooth="yes"/>
      <point x="679" y="652"/>
      <point x="664" y="625"/>
      <point x="622" y="553" type="curve" smooth="yes"/>
      <point x="497" y="345" type="line"/>
      <point x="493" y="345" type="line"/>
      <point x="361" y="608" type="line"/>
      <point x="344" y="641"/>
      <point x="336" y="656"/>
      <point x="336" y="668" type="curve" smooth="yes"/>
      <point x="336" y="686"/>
      <point x="353" y="697"/>
      <point x="402" y="697" type="curve"/>
      <point x="402" y="737" type="line"/>
      <point x="26" y="737" type="line"/>
      <point x="26" y="697" type="line"/>
      <point x="74" y="697"/>
      <point x="97" y="681"/>
      <point x="137" y="615" type="curve" smooth="yes"/>
      <point x="304" y="348" type="line"/>
      <point x="197" y="348" type="line"/>
      <point x="197" y="284" type="line"/>
      <point x="343" y="284" type="line"/>
      <point x="343" y="226" type="line"/>
      <point x="197" y="226" type="line"/>
      <point x="197" y="160" type="line"/>
      <point x="343" y="160" type="line"/>
      <point x="341" y="54"/>
      <point x="315" y="40"/>
      <point x="245" y="40" type="curve"/>
    </contour>
  </outline>
</glyph>
<glyph name="ordfeminine" format="1">
  <advance width="366"/>
  <unicode hex="00AA"/>
  <outline>
    <contour>
      <point x="199" y="594" type="line"/>
      <point x="199" y="561"/>
      <point x="186" y="534"/>
      <point x="167" y="534" type="curve" smooth="yes"/>
      <point x="150" y="534"/>
      <point x="138" y="543"/>
      <point x="138" y="555" type="curve" smooth="yes"/>
      <point x="138" y="577"/>
      <point x="155" y="597"/>
      <point x="199" y="619" type="curve"/>
    </contour>
    <contour>
      <point x="143" y="631" type="line"/>
      <point x="70" y="599"/>
      <point x="46" y="578"/>
      <point x="46" y="542" type="curve" smooth="yes"/>
      <point x="46" y="509"/>
      <point x="79" y="485"/>
      <point x="127" y="485" type="curve" smooth="yes"/>
      <point x="159" y="485"/>
      <point x="185" y="498"/>
      <point x="200" y="517" type="curve"/>
      <point x="204" y="517" type="line"/>
      <point x="204" y="496"/>
      <point x="223" y="485"/>
      <point x="264" y="485" type="curve" smooth="yes"/>
      <point x="293" y="485"/>
      <point x="321" y="495"/>
      <point x="334" y="512" type="curve"/>
      <point x="325" y="536" type="line"/>
      <point x="319" y="527"/>
      <point x="314" y="524"/>
      <point x="300" y="524" type="curve" smooth="yes"/>
      <point x="284" y="524"/>
      <point x="278" y="544"/>
      <point x="278" y="580" type="curve" smooth="yes"/>
      <point x="278" y="673" type="line"/>
      <point x="278" y="727"/>
      <point x="250" y="747"/>
      <point x="171" y="747" type="curve" smooth="yes"/>
      <point x="89" y="747"/>
      <point x="48" y="711"/>
      <point x="48" y="676" type="curve" smooth="yes"/>
      <point x="48" y="655"/>
      <point x="68" y="650"/>
      <point x="82" y="650" type="curve" smooth="yes"/>
      <point x="100" y="650"/>
      <point x="108" y="660"/>
      <point x="115" y="680" type="curve" smooth="yes"/>
      <point x="126" y="704"/>
      <point x="132" y="709"/>
      <point x="162" y="709" type="curve" smooth="yes"/>
      <point x="188" y="709"/>
      <point x="199" y="697"/>
      <point x="199" y="671" type="curve" smooth="yes"/>
      <point x="199" y="660" type="line"/>
    </contour>
  </outline>
</glyph>
<glyph name="guillemotleft" format="1">
  <advance width="558"/>
  <unicode hex="00AB"/>
  <outline>
    <contour>
      <point x="236" y="62" type="line"/>
      <point x="275" y="86" type="line"/>
      <point x="194" y="251" type="line"/>
      <point x="278" y="417" type="line"/>
      <point x="242" y="441" type="line"/>
      <point x="42" y="251" type="line"/>
    </contour>
    <contour>
      <point x="470" y="62" type="line"/>
      <point x="509" y="86" type="line"/>
      <point x="426" y="251" type="line"/>
      <point x="512" y="417" type="line"/>
      <point x="476" y="441" type="line"/>
      <point x="276" y="251" type="line"/>
    </contour>
  </outline>
</glyph>
<glyph name="logicalnot" format="1">
  <advance width="616"/>
  <unicode hex="00AC"/>
  <outline>
    <contour>
      <point x="467" y="106" type="line"/>
      <point x="546" y="106" type="line"/>
      <point x="546" y="362" type="line"/>
      <point x="63" y="362" type="line"/>
      <point x="63" y="286" type="line"/>
      <point x="467" y="286" type="line"/>
    </contour>
  </outline>
</glyph>
<glyph name="uni00AD" format="1">
  <advance width="448"/>
  <unicode hex="00AD"/>
  <outline>
    <contour>
      <point x="391" y="229" type="line"/>
      <point x="391" y="326" type="line"/>
      <point x="58" y="326" type="line"/>
      <point x="58" y="229" type="line"/>
    </contour>
  </outline>
</glyph>
<glyph name="macron" format="1">
  <advance width="319"/>
  <unicode hex="00AF"/>
  <outline>
    <contour>
      <point x="300" y="659" type="line"/>
      <point x="300" y="727" type="line"/>
      <point x="21" y="727" type="line"/>
      <point x="21" y="659" type="line"/>
    </contour>
    <contour>
      <point x="160" y="623" type="move" name="_top"/>
    </contour>
  </outline>
</glyph>
<glyph name="acute" format="1">
  <advance width="297"/>
  <unicode hex="00B4"/>
  <outline>
    <contour>
      <point x="76" y="623" type="line"/>
      <point x="210" y="678" type="line"/>
      <point x="254" y="696"/>
      <point x="284" y="713"/>
      <point x="284" y="735" type="curve" smooth="yes"/>
      <point x="284" y="765"/>
      <point x="259" y="783"/>
      <point x="223" y="783" type="curve" smooth="yes"/>
      <point x="196" y="783"/>
      <point x="168" y="768"/>
      <point x="134" y="737" type="curve" smooth="yes"/>
      <point x="14" y="623" type="line"/>
    </contour>
    <contour>
      <point x="113" y="623" type="move" name="_top"/>
    </contour>
  </outline>
</glyph>
<glyph name="mu" format="1">
  <advance width="723"/>
  <unicode hex="00B5"/>
  <outline>
    <contour>
      <point x="191" y="93" type="line"/>
      <point x="228" y="22"/>
      <point x="285" y="-9"/>
      <point x="348" y="-9" type="curve" smooth="yes"/>
      <point x="420" y="-9"/>
      <point x="458" y="5"/>
      <point x="481" y="61" type="curve"/>
      <point x="483" y="61" type="line"/>
      <point x="495" y="-10" type="line"/>
      <point x="700" y="1" type="line"/>
      <point x="700" y="41" type="line"/>
      <point x="637" y="41"/>
      <point x="623" y="47"/>
      <point x="617" y="78" type="curve" smooth="yes"/>
      <point x="611" y="102"/>
      <point x="611" y="143"/>
      <point x="611" y="213" type="curve" smooth="yes"/>
      <point x="611" y="508" type="line"/>
      <point x="374" y="508" type="line"/>
      <point x="374" y="467" type="line"/>
      <point x="457" y="456"/>
      <point x="459" y="451"/>
      <point x="459" y="347" type="curve" smooth="yes"/>
      <point x="459" y="260" type="line"/>
      <point x="459" y="210"/>
      <point x="447" y="139"/>
      <point x="435" y="106" type="curve" smooth="yes"/>
      <point x="416" y="68"/>
      <point x="393" y="58"/>
      <point x="352" y="58" type="curve" smooth="yes"/>
      <point x="286" y="58"/>
      <point x="256" y="113"/>
      <point x="256" y="246" type="curve" smooth="yes"/>
      <point x="256" y="508" type="line"/>
      <point x="21" y="508" type="line"/>
      <point x="21" y="467" type="line"/>
      <point x="104" y="456"/>
      <point x="106" y="453"/>
      <point x="106" y="347" type="curve" smooth="yes"/>
      <point x="106" y="-162" type="line"/>
      <point x="106" y="-212"/>
      <point x="139" y="-249"/>
      <point x="186" y="-249" type="curve" smooth="yes"/>
      <point x="230" y="-249"/>
      <point x="258" y="-224"/>
      <point x="258" y="-180" type="curve" smooth="yes"/>
      <point x="258" y="-131"/>
      <point x="213" y="24"/>
      <point x="188" y="92" type="curve"/>
    </contour>
    <contour>
      <point x="363" y="623" type="move" name="top"/>
    </contour>
    <contour>
      <point x="340" y="0" type="move" name="bottom"/>
    </contour>
  </outline>
</glyph>
<glyph name="onesuperior" format="1">
  <advance width="240"/>
  <unicode hex="00B9"/>
  <outline>
    <contour>
      <point x="155" y="747" type="line"/>
      <point x="121" y="738"/>
      <point x="79" y="731"/>
      <point x="45" y="731" type="curve"/>
      <point x="45" y="704" type="line"/>
      <point x="72" y="704"/>
      <point x="87" y="702"/>
      <point x="89" y="692" type="curve" smooth="yes"/>
      <point x="90" y="687"/>
      <point x="90" y="666"/>
      <point x="90" y="636" type="curve" smooth="yes"/>
      <point x="90" y="519" type="line"/>
      <point x="90" y="482"/>
      <point x="85" y="477"/>
      <point x="47" y="474" type="curve"/>
      <point x="47" y="448" type="line"/>
      <point x="199" y="448" type="line"/>
      <point x="199" y="474" type="line"/>
      <point x="161" y="476"/>
      <point x="155" y="482"/>
      <point x="155" y="522" type="curve" smooth="yes"/>
    </contour>
  </outline>
</glyph>
<glyph name="onequarter" format="1">
  <advance width="701"/>
  <unicode hex="00BC"/>
  <outline>
    <contour>
      <point x="671" y="737" type="line"/>
      <point x="593" y="737" type="line"/>
      <point x="25" y="0" type="line"/>
      <point x="113" y="0" type="line"/>
    </contour>
    <component base="onesuperior" xOffset="87"/>
    <component base="fourinferior" xOffset="353"/>
  </outline>
</glyph>
<glyph name="onehalf" format="1">
  <advance width="704"/>
  <unicode hex="00BD"/>
  <outline>
    <contour>
      <point x="671" y="737" type="line"/>
      <point x="593" y="737" type="line"/>
      <point x="25" y="0" type="line"/>
      <point x="113" y="0" type="line"/>
    </contour>
    <component base="onesuperior" xOffset="87"/>
    <component base="twoinferior" xOffset="361"/>
  </outline>
</glyph>
<glyph name="AE" format="1">
  <advance width="1202"/>
  <unicode hex="00C6"/>
  <outline>
    <contour>
      <point x="444" y="41" type="curve"/>
      <point x="444" y="0" type="line"/>
      <point x="1158" y="0" type="line"/>
      <point x="1172" y="231" type="line"/>
      <point x="1128" y="231" type="line"/>
      <point x="1101" y="96"/>
      <point x="1052" y="56"/>
      <point x="912" y="56" type="curve" smooth="yes"/>
      <point x="781" y="56"/>
      <point x="741" y="81"/>
      <point x="741" y="164" type="curve" smooth="yes"/>
      <point x="741" y="358" type="line"/>
      <point x="924" y="356"/>
      <point x="932" y="339"/>
      <point x="948" y="239" type="curve"/>
      <point x="985" y="239" type="line"/>
      <point x="985" y="530" type="line"/>
      <point x="948" y="530" type="line"/>
      <point x="934" y="421"/>
      <point x="925" y="410"/>
      <point x="741" y="410" type="curve"/>
      <point x="741" y="665" type="line"/>
      <point x="741" y="676"/>
      <point x="747" y="682"/>
      <point x="758" y="682" type="curve" smooth="yes"/>
      <point x="889" y="682" type="line"/>
      <point x="1024" y="682"/>
      <point x="1069" y="654"/>
      <point x="1084" y="540" type="curve"/>
      <point x="1128" y="540" type="line"/>
      <point x="1128" y="737" type="line"/>
      <point x="360" y="737" type="line"/>
      <point x="360" y="687" type="line"/>
      <point x="413" y="687"/>
      <point x="439" y="683"/>
      <point x="439" y="665" type="curve" smooth="yes"/>
      <point x="439" y="659"/>
      <point x="436" y="651"/>
      <point x="430" y="641" type="curve" smooth="yes"/>
      <point x="99" y="118" type="line" smooth="yes"/>
      <point x="65" y="65"/>
      <point x="37" y="47"/>
      <point x="-27" y="41" type="curve"/>
      <point x="-27" y="0" type="line"/>
      <point x="277" y="0" type="line"/>
      <point x="277" y="41" type="line"/>
      <point x="241" y="43"/>
      <point x="183" y="49"/>
      <point x="183" y="94" type="curve"/>
      <point x="183" y="107"/>
      <point x="189" y="125"/>
      <point x="200" y="143" type="curve" smooth="yes"/>
      <point x="272" y="257" type="line"/>
      <point x="543" y="257" type="line"/>
      <point x="543" y="150" type="line"/>
      <point x="543" y="61"/>
      <point x="527" y="43"/>
    </contour>
    <contour>
      <point x="310" y="322" type="line"/>
      <point x="543" y="690" type="line"/>
      <point x="543" y="322" type="line"/>
    </contour>
  </outline>
</glyph>
<glyph name="multiply" format="1">
  <advance width="504"/>
  <unicode hex="00D7"/>
  <outline>
    <contour>
      <point x="89" y="101" type="line"/>
      <point x="250" y="263" type="line"/>
      <point x="409" y="104" type="line"/>
      <point x="461" y="155" type="line"/>
      <point x="302" y="314" type="line"/>
      <point x="463" y="476" type="line"/>
      <point x="416" y="523" type="line"/>
      <point x="254" y="363" type="line"/>
      <point x="95" y="521" type="line"/>
      <point x="44" y="469" type="line"/>
      <point x="203" y="310" type="line"/>
      <point x="41" y="150" type="line"/>
    </contour>
  </outline>
</glyph>
<glyph name="Thorn" format="1">
  <advance width="779"/>
  <unicode hex="00DE"/>
  <outline>
    <contour>
      <point x="333" y="594" type="line"/>
      <point x="333" y="683"/>
      <point x="336" y="700"/>
      <point x="461" y="700" type="curve"/>
      <point x="461" y="737" type="line"/>
      <point x="24" y="737" type="line"/>
      <point x="24" y="696" type="line"/>
      <point x="120" y="694"/>
      <point x="137" y="678"/>
      <point x="137" y="588" type="curve" smooth="yes"/>
      <point x="137" y="145" type="line"/>
      <point x="137" y="56"/>
      <point x="120" y="43"/>
      <point x="24" y="41" type="curve"/>
      <point x="24" y="0" type="line"/>
      <point x="461" y="0" type="line"/>
      <point x="461" y="41" type="line"/>
      <point x="336" y="41"/>
      <point x="333" y="55"/>
      <point x="333" y="137" type="curve" smooth="yes"/>
      <point x="333" y="155" type="line"/>
      <point x="412" y="155" type="line"/>
      <point x="682" y="155"/>
      <point x="759" y="230"/>
      <point x="759" y="360" type="curve" smooth="yes"/>
      <point x="759" y="490"/>
      <point x="660" y="578"/>
      <point x="432" y="578" type="curve" smooth="yes"/>
      <point x="333" y="578" type="line"/>
    </contour>
    <contour>
      <point x="333" y="502" type="line"/>
      <point x="333" y="511"/>
      <point x="341" y="519"/>
      <point x="351" y="519" type="curve" smooth="yes"/>
      <point x="419" y="519" type="line"/>
      <point x="492" y="519"/>
      <point x="537" y="463"/>
      <point x="537" y="375" type="curve" smooth="yes"/>
      <point x="537" y="262"/>
      <point x="490" y="216"/>
      <point x="379" y="216" type="curve" smooth="yes"/>
      <point x="333" y="216" type="line"/>
    </contour>
  </outline>
</glyph>
<glyph name="germandbls" format="1">
  <advance width="810"/>
  <unicode hex="00DF"/>
  <outline>
    <contour>
      <point x="423" y="732" type="curve"/>
      <point x="484" y="732"/>
      <point x="515" y="684"/>
      <point x="515" y="606" type="curve" smooth="yes"/>
      <point x="515" y="514"/>
      <point x="500" y="473"/>
      <point x="422" y="473" type="curve"/>
      <point x="422" y="410" type="line"/>
      <point x="525" y="410"/>
      <point x="571" y="338"/>
      <point x="571" y="200" type="curve"/>
      <point x="571" y="118"/>
      <point x="562" y="48"/>
      <point x="534" y="48" type="curve" smooth="yes"/>
      <point x="523" y="48"/>
      <point x="518" y="63"/>
      <point x="510" y="83" type="curve" smooth="yes"/>
      <point x="495" y="119"/>
      <point x="477" y="138"/>
      <point x="446" y="138" type="curve" smooth="yes"/>
      <point x="410" y="138"/>
      <point x="387" y="117"/>
      <point x="387" y="84" type="curve" smooth="yes"/>
      <point x="387" y="33"/>
      <point x="454" y="-9"/>
      <point x="544" y="-9" type="curve" smooth="yes"/>
      <point x="704" y="-9"/>
      <point x="779" y="86"/>
      <point x="779" y="203" type="curve"/>
      <point x="779" y="333"/>
      <point x="686" y="423"/>
      <point x="546" y="443" type="curve"/>
      <point x="546" y="447" type="line"/>
      <point x="643" y="471"/>
      <point x="712" y="521"/>
      <point x="712" y="603" type="curve" smooth="yes"/>
      <point x="712" y="715"/>
      <point x="592" y="795"/>
      <point x="425" y="795" type="curve"/>
      <point x="233" y="795"/>
      <point x="100" y="715"/>
      <point x="100" y="531" type="curve"/>
      <point x="100" y="154" type="line"/>
      <point x="100" y="57"/>
      <point x="91" y="44"/>
      <point x="12" y="41" type="curve"/>
      <point x="12" y="0" type="line"/>
      <point x="366" y="0" type="line"/>
      <point x="366" y="41" type="line"/>
      <point x="306" y="43"/>
      <point x="297" y="65"/>
      <point x="297" y="162" type="curve"/>
      <point x="297" y="579" type="line"/>
      <point x="297" y="686"/>
      <point x="351" y="732"/>
    </contour>
  </outline>
</glyph>
<glyph name="thorn" format="1">
  <advance width="707"/>
  <unicode hex="00FE"/>
  <outline>
    <contour>
      <point x="268" y="477" type="curve"/>
      <point x="268" y="795" type="line"/>
      <point x="-17" y="758" type="line"/>
      <point x="-17" y="726" type="line"/>
      <point x="40" y="726"/>
      <point x="57" y="717"/>
      <point x="64" y="685" type="curve" smooth="yes"/>
      <point x="68" y="667"/>
      <point x="70" y="617"/>
      <point x="70" y="542" type="curve" smooth="yes"/>
      <point x="70" y="-86" type="line"/>
      <point x="70" y="-176"/>
      <point x="58" y="-195"/>
      <point x="-12" y="-199" type="curve"/>
      <point x="-12" y="-240" type="line"/>
      <point x="350" y="-240" type="line"/>
      <point x="350" y="-199" type="line"/>
      <point x="276" y="-196"/>
      <point x="268" y="-183"/>
      <point x="268" y="-79" type="curve" smooth="yes"/>
      <point x="268" y="51" type="line"/>
      <point x="272" y="51" type="line"/>
      <point x="305" y="10"/>
      <point x="346" y="-9"/>
      <point x="405" y="-9" type="curve"/>
      <point x="562" y="-9"/>
      <point x="675" y="90"/>
      <point x="675" y="254" type="curve" smooth="yes"/>
      <point x="675" y="408"/>
      <point x="563" y="517"/>
      <point x="407" y="517" type="curve"/>
      <point x="348" y="517"/>
      <point x="308" y="504"/>
    </contour>
    <contour>
      <point x="376" y="458" type="curve"/>
      <point x="441" y="458"/>
      <point x="469" y="393"/>
      <point x="469" y="254" type="curve" smooth="yes"/>
      <point x="469" y="118"/>
      <point x="443" y="62"/>
      <point x="376" y="62" type="curve"/>
      <point x="279" y="62"/>
      <point x="269" y="165"/>
      <point x="269" y="223" type="curve" smooth="yes"/>
      <point x="269" y="283" type="line"/>
      <point x="269" y="370"/>
      <point x="288" y="458"/>
    </contour>
  </outline>
</glyph>
<glyph name="Hbar" format="1">
  <advance width="997"/>
  <unicode hex="0126"/>
  <outline>
    <contour>
      <point x="71" y="518" type="line"/>
      <point x="71" y="580" type="line"/>
      <point x="921" y="580" type="line"/>
      <point x="921" y="518" type="line"/>
    </contour>
    <component base="H" xOffset="7"/>
  </outline>
</glyph>
<glyph name="kgreenlandic" format="1">
  <advance width="755"/>
  <unicode hex="0138"/>
  <outline>
    <contour>
      <point x="401" y="0" type="line"/>
      <point x="764" y="0" type="line"/>
      <point x="764" y="41" type="line"/>
      <point x="722" y="41"/>
      <point x="695" y="50"/>
      <point x="667" y="96" type="curve" smooth="yes"/>
      <point x="500" y="350" type="line"/>
      <point x="576" y="409" type="line"/>
      <point x="624" y="447"/>
      <point x="658" y="467"/>
      <point x="707" y="467" type="curve"/>
      <point x="707" y="508" type="line"/>
      <point x="440" y="508" type="line"/>
      <point x="440" y="467" type="line"/>
      <point x="514" y="467"/>
      <point x="527" y="462"/>
      <point x="527" y="453" type="curve" smooth="yes"/>
      <point x="527" y="444"/>
      <point x="517" y="431"/>
      <point x="430" y="361" type="curve" smooth="yes"/>
      <point x="302" y="259" type="line"/>
      <point x="302" y="512" type="line"/>
      <point x="28" y="476" type="line"/>
      <point x="28" y="439" type="line"/>
      <point x="100" y="439"/>
      <point x="104" y="438"/>
      <point x="104" y="247" type="curve" smooth="yes"/>
      <point x="104" y="153" type="line"/>
      <point x="104" y="62"/>
      <point x="88" y="41"/>
      <point x="22" y="41" type="curve"/>
      <point x="22" y="0" type="line"/>
      <point x="357" y="0" type="line"/>
      <point x="357" y="41" type="line"/>
      <point x="311" y="41"/>
      <point x="302" y="62"/>
      <point x="302" y="160" type="curve" smooth="yes"/>
      <point x="302" y="187" type="line"/>
      <point x="360" y="234" type="line"/>
      <point x="448" y="81" type="line"/>
      <point x="446" y="79"/>
      <point x="449" y="69"/>
      <point x="449" y="63" type="curve" smooth="yes"/>
      <point x="449" y="47"/>
      <point x="434" y="41"/>
      <point x="401" y="41" type="curve"/>
    </contour>
  </outline>
</glyph>
<glyph name="Eng" format="1">
  <advance width="922"/>
  <unicode hex="014A"/>
  <outline>
    <contour>
      <point x="798" y="-9" type="line"/>
      <point x="798" y="-165"/>
      <point x="715" y="-249"/>
      <point x="573" y="-249" type="curve" smooth="yes"/>
      <point x="479" y="-249"/>
      <point x="400" y="-207"/>
      <point x="400" y="-142" type="curve" smooth="yes"/>
      <point x="400" y="-108"/>
      <point x="426" y="-86"/>
      <point x="461" y="-86" type="curve" smooth="yes"/>
      <point x="485" y="-86"/>
      <point x="508" y="-100"/>
      <point x="532" y="-137" type="curve" smooth="yes"/>
      <point x="555" y="-173"/>
      <point x="571" y="-182"/>
      <point x="606" y="-182" type="curve" smooth="yes"/>
      <point x="660" y="-182"/>
      <point x="714" y="-144"/>
      <point x="714" y="-87" type="curve"/>
      <point x="714" y="-71" type="line"/>
      <point x="221" y="588" type="line"/>
      <point x="217" y="588" type="line"/>
      <point x="217" y="184" type="line"/>
      <point x="217" y="58"/>
      <point x="231" y="43"/>
      <point x="319" y="40" type="curve"/>
      <point x="319" y="0" type="line"/>
      <point x="22" y="0" type="line"/>
      <point x="22" y="40" type="line"/>
      <point x="118" y="43"/>
      <point x="135" y="59"/>
      <point x="135" y="178" type="curve" smooth="yes"/>
      <point x="135" y="561" type="line"/>
      <point x="135" y="668"/>
      <point x="120" y="695"/>
      <point x="32" y="697" type="curve"/>
      <point x="32" y="737" type="line"/>
      <point x="350" y="737" type="line"/>
      <point x="712" y="237" type="line"/>
      <point x="716" y="237" type="line"/>
      <point x="716" y="553" type="line"/>
      <point x="716" y="679"/>
      <point x="700" y="696"/>
      <point x="614" y="697" type="curve"/>
      <point x="614" y="737" type="line"/>
      <point x="911" y="737" type="line"/>
      <point x="911" y="697" type="line"/>
      <point x="814" y="696"/>
      <point x="798" y="680"/>
      <point x="798" y="561" type="curve" smooth="yes"/>
    </contour>
  </outline>
</glyph>
<glyph name="OE" format="1">
  <advance width="1178"/>
  <unicode hex="0152"/>
  <outline>
    <contour>
      <point x="459" y="737" type="line"/>
      <point x="227" y="737"/>
      <point x="37" y="565"/>
      <point x="37" y="370" type="curve" smooth="yes"/>
      <point x="37" y="141"/>
      <point x="238" y="0"/>
      <point x="457" y="0" type="curve"/>
      <point x="1133" y="0" type="line"/>
      <point x="1156" y="234" type="line"/>
      <point x="1117" y="234" type="line"/>
      <point x="1088" y="108"/>
      <point x="1050" y="59"/>
      <point x="886" y="59" type="curve" smooth="yes"/>
      <point x="758" y="59"/>
      <point x="716" y="84"/>
      <point x="716" y="167" type="curve" smooth="yes"/>
      <point x="716" y="367" type="line"/>
      <point x="866" y="365"/>
      <point x="895" y="346"/>
      <point x="919" y="239" type="curve"/>
      <point x="960" y="239" type="line"/>
      <point x="960" y="530" type="line"/>
      <point x="919" y="530" type="line"/>
      <point x="902" y="421"/>
      <point x="868" y="405"/>
      <point x="716" y="405" type="curve"/>
      <point x="716" y="665" type="line"/>
      <point x="716" y="676"/>
      <point x="722" y="682"/>
      <point x="734" y="682" type="curve" smooth="yes"/>
      <point x="865" y="682" type="line"/>
      <point x="1003" y="682"/>
      <point x="1049" y="642"/>
      <point x="1066" y="540" type="curve"/>
      <point x="1108" y="540" type="line"/>
      <point x="1100" y="737" type="line"/>
    </contour>
    <contour>
      <point x="462" y="664" type="curve" smooth="yes"/>
      <point x="499" y="664"/>
      <point x="519" y="642"/>
      <point x="519" y="592" type="curve" smooth="yes"/>
      <point x="519" y="145" type="line"/>
      <point x="519" y="97"/>
      <point x="497" y="73"/>
      <point x="462" y="73" type="curve"/>
      <point x="328" y="73"/>
      <point x="258" y="160"/>
      <point x="258" y="367" type="curve" smooth="yes"/>
      <point x="258" y="542"/>
      <point x="322" y="664"/>
    </contour>
  </outline>
</glyph>
<glyph name="Tbar" format="1">
  <advance width="776"/>
  <unicode hex="0166"/>
  <outline>
    <contour>
      <point x="661" y="385" type="line"/>
      <point x="661" y="447" type="line"/>
      <point x="119" y="447" type="line"/>
      <point x="119" y="385" type="line"/>
    </contour>
    <component base="T" xOffset="16"/>
  </outline>
</glyph>
<glyph name="Schwa" format="1">
  <advance width="846"/>
  <unicode hex="018F"/>
  <outline>
    <contour>
      <point x="356" y="-9" type="curve" smooth="yes"/>
      <point x="616" y="-9"/>
      <point x="809" y="151"/>
      <point x="809" y="378" type="curve" smooth="yes"/>
      <point x="809" y="597"/>
      <point x="649" y="747"/>
      <point x="411" y="747" type="curve" smooth="yes"/>
      <point x="272" y="747"/>
      <point x="144" y="707"/>
      <point x="59" y="610" type="curve"/>
      <point x="106" y="566" type="line"/>
      <point x="190" y="651"/>
      <point x="282" y="679"/>
      <point x="362" y="679" type="curve"/>
      <point x="498" y="679"/>
      <point x="580" y="562"/>
      <point x="580" y="369" type="curve" smooth="yes"/>
      <point x="580" y="344"/>
      <point x="581" y="321"/>
      <point x="573" y="308" type="curve"/>
      <point x="75" y="308" type="line"/>
      <point x="34" y="308"/>
      <point x="29" y="305"/>
      <point x="29" y="281" type="curve" smooth="yes"/>
      <point x="29" y="101"/>
      <point x="151" y="-9"/>
    </contour>
    <contour>
      <point x="382" y="61" type="curve" smooth="yes"/>
      <point x="254" y="61"/>
      <point x="218" y="113"/>
      <point x="218" y="195" type="curve" smooth="yes"/>
      <point x="218" y="228"/>
      <point x="224" y="235"/>
      <point x="306" y="235" type="curve"/>
      <point x="567" y="235" type="line"/>
      <point x="546" y="110"/>
      <point x="500" y="61"/>
    </contour>
  </outline>
</glyph>
<glyph name="florin" format="1">
  <advance width="843"/>
  <unicode hex="0192"/>
  <outline>
    <contour>
      <point x="103" y="-189" type="curve" smooth="yes"/>
      <point x="65" y="-189"/>
      <point x="38" y="-149"/>
      <point x="9" y="-124" type="curve" smooth="yes"/>
      <point x="-11" y="-106"/>
      <point x="-36" y="-88"/>
      <point x="-69" y="-88" type="curve" smooth="yes"/>
      <point x="-116" y="-88"/>
      <point x="-136" y="-118"/>
      <point x="-136" y="-148" type="curve" smooth="yes"/>
      <point x="-136" y="-207"/>
      <point x="-52" y="-249"/>
      <point x="99" y="-249" type="curve" smooth="yes"/>
      <point x="314" y="-249"/>
      <point x="403" y="-126"/>
      <point x="466" y="216" type="curve" smooth="yes"/>
      <point x="501" y="410" type="line"/>
      <point x="616" y="410" type="line"/>
      <point x="629" y="466" type="line"/>
      <point x="506" y="466" type="line"/>
      <point x="513" y="500" type="line" smooth="yes"/>
      <point x="540" y="633"/>
      <point x="556" y="687"/>
      <point x="604" y="687" type="curve" smooth="yes"/>
      <point x="636" y="687"/>
      <point x="655" y="659"/>
      <point x="670" y="633" type="curve" smooth="yes"/>
      <point x="689" y="600"/>
      <point x="716" y="577"/>
      <point x="762" y="577" type="curve" smooth="yes"/>
      <point x="811" y="577"/>
      <point x="831" y="606"/>
      <point x="831" y="638" type="curve" smooth="yes"/>
      <point x="831" y="703"/>
      <point x="747" y="747"/>
      <point x="618" y="747" type="curve" smooth="yes"/>
      <point x="441" y="747"/>
      <point x="330" y="653"/>
      <point x="299" y="503" type="curve" smooth="yes"/>
      <point x="292" y="466" type="line"/>
      <point x="189" y="466" type="line"/>
      <point x="175" y="410" type="line"/>
      <point x="281" y="410" type="line"/>
      <point x="226" y="78" type="line" smooth="yes"/>
      <point x="193" y="-121"/>
      <point x="161" y="-189"/>
    </contour>
  </outline>
</glyph>
<glyph name="Aringacute" format="1">
  <advance width="819"/>
  <unicode hex="01FA"/>
  <outline>
    <contour>
      <point x="497" y="167" type="line"/>
      <point x="517" y="124"/>
      <point x="524" y="94"/>
      <point x="524" y="77" type="curve" smooth="yes"/>
      <point x="524" y="48"/>
      <point x="499" y="44"/>
      <point x="439" y="41" type="curve"/>
      <point x="439" y="0" type="line"/>
      <point x="853" y="0" type="line"/>
      <point x="853" y="41" type="line"/>
      <point x="752" y="53"/>
      <point x="761" y="62"/>
      <point x="683" y="213" type="curve" smooth="yes"/>
      <point x="434" y="689" type="line"/>
      <point x="348" y="689" type="line"/>
      <point x="95" y="117" type="line"/>
      <point x="72" y="61"/>
      <point x="47" y="49"/>
      <point x="-17" y="40" type="curve"/>
      <point x="-17" y="0" type="line"/>
      <point x="259" y="0" type="line"/>
      <point x="259" y="40" type="line"/>
      <point x="200" y="40"/>
      <point x="168" y="41"/>
      <point x="168" y="81" type="curve" smooth="yes"/>
      <point x="168" y="97"/>
      <point x="174" y="115"/>
      <point x="212" y="203" type="curve"/>
      <point x="482" y="203" type="line"/>
    </contour>
    <contour>
      <point x="342" y="499" type="line"/>
      <point x="453" y="264" type="line"/>
      <point x="237" y="264" type="line"/>
    </contour>
    <contour>
      <point x="322" y="841" type="curve" smooth="yes"/>
      <point x="322" y="832"/>
      <point x="322" y="826"/>
      <point x="324" y="820" type="curve"/>
      <point x="265" y="766" type="line"/>
      <point x="319" y="766" type="line"/>
      <point x="353" y="780" type="line"/>
      <point x="366" y="770"/>
      <point x="385" y="764"/>
      <point x="404" y="764" type="curve" smooth="yes"/>
      <point x="452" y="764"/>
      <point x="486" y="798"/>
      <point x="486" y="841" type="curve" smooth="yes"/>
      <point x="486" y="846"/>
      <point x="485" y="851"/>
      <point x="484" y="856" type="curve"/>
      <point x="511" y="870"/>
      <point x="529" y="886"/>
      <point x="529" y="903" type="curve" smooth="yes"/>
      <point x="529" y="919"/>
      <point x="516" y="929"/>
      <point x="499" y="929" type="curve" smooth="yes"/>
      <point x="482" y="929"/>
      <point x="467" y="923"/>
      <point x="451" y="906" type="curve"/>
      <point x="437" y="915"/>
      <point x="422" y="919"/>
      <point x="404" y="919" type="curve" smooth="yes"/>
      <point x="357" y="919"/>
      <point x="322" y="886"/>
    </contour>
    <contour>
      <point x="361" y="841" type="curve" smooth="yes"/>
      <point x="361" y="865"/>
      <point x="378" y="881"/>
      <point x="404" y="881" type="curve" smooth="yes"/>
      <point x="430" y="881"/>
      <point x="448" y="865"/>
      <point x="448" y="841" type="curve" smooth="yes"/>
      <point x="448" y="817"/>
      <point x="430" y="801"/>
      <point x="404" y="801" type="curve" smooth="yes"/>
      <point x="378" y="801"/>
      <point x="361" y="817"/>
    </contour>
  </outline>
</glyph>
<glyph name="dotlessj" format="1">
  <advance width="379"/>
  <unicode hex="0237"/>
  <outline>
    <contour>
      <point x="299" y="517" type="line"/>
      <point x="17" y="480" type="line"/>
      <point x="17" y="448" type="line"/>
      <point x="76" y="448"/>
      <point x="90" y="440"/>
      <point x="96" y="411" type="curve" smooth="yes"/>
      <point x="100" y="395"/>
      <point x="105" y="350"/>
      <point x="105" y="282" type="curve" smooth="yes"/>
      <point x="105" y="-80" type="line"/>
      <point x="105" y="-161"/>
      <point x="74" y="-193"/>
      <point x="34" y="-193" type="curve" smooth="yes"/>
      <point x="4" y="-193"/>
      <point x="-4" y="-167"/>
      <point x="-7" y="-152" type="curve" smooth="yes"/>
      <point x="-14" y="-124"/>
      <point x="-22" y="-85"/>
      <point x="-74" y="-85" type="curve"/>
      <point x="-120" y="-85"/>
      <point x="-154" y="-119"/>
      <point x="-154" y="-154" type="curve"/>
      <point x="-154" y="-222"/>
      <point x="-93" y="-249"/>
      <point x="28" y="-249" type="curve" smooth="yes"/>
      <point x="204" y="-249"/>
      <point x="299" y="-172"/>
      <point x="299" y="13" type="curve" smooth="yes"/>
    </contour>
    <contour>
      <point x="175" y="623" type="move" name="top"/>
    </contour>
  </outline>
</glyph>
<glyph name="breve" format="1">
  <advance width="325"/>
  <unicode hex="02D8"/>
  <outline>
    <contour>
      <point x="266" y="757" type="line"/>
      <point x="254" y="730"/>
      <point x="213" y="713"/>
      <point x="162" y="713" type="curve" smooth="yes"/>
      <point x="111" y="713"/>
      <point x="70" y="730"/>
      <point x="59" y="757" type="curve"/>
      <point x="14" y="757" type="line"/>
      <point x="17" y="677"/>
      <point x="79" y="618"/>
      <point x="163" y="618" type="curve" smooth="yes"/>
      <point x="245" y="618"/>
      <point x="307" y="676"/>
      <point x="312" y="757" type="curve"/>
    </contour>
    <contour>
      <point x="163" y="623" type="move" name="_top"/>
    </contour>
  </outline>
</glyph>
<glyph name="ring" format="1">
  <advance width="219"/>
  <unicode hex="02DA"/>
  <outline>
    <contour>
      <point x="109" y="795" type="curve"/>
      <point x="57" y="795"/>
      <point x="20" y="759"/>
      <point x="20" y="711" type="curve" smooth="yes"/>
      <point x="20" y="663"/>
      <point x="57" y="629"/>
      <point x="109" y="629" type="curve"/>
      <point x="161" y="629"/>
      <point x="198" y="663"/>
      <point x="198" y="711" type="curve" smooth="yes"/>
      <point x="198" y="759"/>
      <point x="161" y="795"/>
    </contour>
    <contour>
      <point x="109" y="674" type="curve"/>
      <point x="91.0" y="674.0"/>
      <point x="75.0" y="685.970588235"/>
      <point x="75" y="711" type="curve" smooth="yes"/>
      <point x="75.0" y="735.0625"/>
      <point x="91.0" y="746.0"/>
      <point x="109" y="746" type="curve"/>
      <point x="127.0" y="746.0"/>
      <point x="143.0" y="735.0625"/>
      <point x="143" y="711" type="curve" smooth="yes"/>
      <point x="143.0" y="685.970588235"/>
      <point x="127.0" y="674.0"/>
    </contour>
    <contour>
      <point x="109" y="623" type="move" name="_top"/>
    </contour>
  </outline>
</glyph>
<glyph name="hungarumlaut" format="1">
  <advance width="541"/>
  <unicode hex="02DD"/>
  <outline>
    <contour>
      <point x="76" y="623" type="line"/>
      <point x="210" y="678" type="line"/>
      <point x="254" y="696"/>
      <point x="284" y="713"/>
      <point x="284" y="735" type="curve" smooth="yes"/>
      <point x="284" y="765"/>
      <point x="259" y="783"/>
      <point x="223" y="783" type="curve" smooth="yes"/>
      <point x="196" y="783"/>
      <point x="168" y="768"/>
      <point x="134" y="737" type="curve" smooth="yes"/>
      <point x="14" y="623" type="line"/>
    </contour>
    <contour>
      <point x="320" y="623" type="line"/>
      <point x="454" y="678" type="line"/>
      <point x="499" y="696"/>
      <point x="528" y="713"/>
      <point x="528" y="735" type="curve" smooth="yes"/>
      <point x="528" y="765"/>
      <point x="505" y="783"/>
      <point x="467" y="783" type="curve" smooth="yes"/>
      <point x="439" y="783"/>
      <point x="413" y="768"/>
      <point x="378" y="737" type="curve" smooth="yes"/>
      <point x="259" y="623" type="line"/>
    </contour>
    <contour>
      <point x="244" y="623" type="move" name="_top"/>
    </contour>
  </outline>
</glyph>
<glyph name="commaaccent" format="1">
  <advance width="166"/>
  <unicode hex="0326"/>
  <outline>
    <contour>
      <point x="55" y="-249" type="line"/>
      <point x="121" y="-210"/>
      <point x="147" y="-169"/>
      <point x="147" y="-124" type="curve" smooth="yes"/>
      <point x="147" y="-76"/>
      <point x="123" y="-49"/>
      <point x="81" y="-49" type="curve" smooth="yes"/>
      <point x="37" y="-49"/>
      <point x="6" y="-79"/>
      <point x="6" y="-109" type="curve" smooth="yes"/>
      <point x="6" y="-139"/>
      <point x="28" y="-159"/>
      <point x="52" y="-159" type="curve" smooth="yes"/>
      <point x="63" y="-159"/>
      <point x="73" y="-156"/>
      <point x="78" y="-151" type="curve"/>
      <point x="78" y="-174"/>
      <point x="61" y="-197"/>
      <point x="26" y="-217" type="curve"/>
    </contour>
    <contour>
      <point x="81" y="-9" type="move" name="_bottom"/>
    </contour>
  </outline>
</glyph>
<glyph name="emdash" format="1">
  <advance width="1101"/>
  <unicode hex="2014"/>
  <outline>
    <contour>
      <point x="1043" y="230" type="line"/>
      <point x="1043" y="324" type="line"/>
      <point x="58" y="324" type="line"/>
      <point x="58" y="230" type="line"/>
    </contour>
  </outline>
</glyph>
<glyph name="quotedblleft" format="1">
  <advance width="516"/>
  <unicode hex="201C"/>
  <outline>
    <contour>
      <point x="440" y="795" type="line"/>
      <point x="352" y="784"/>
      <point x="266" y="690"/>
      <point x="266" y="614" type="curve" smooth="yes"/>
      <point x="266" y="560"/>
      <point x="297" y="505"/>
      <point x="363" y="505" type="curve" smooth="yes"/>
      <point x="430" y="505"/>
      <point x="465" y="549"/>
      <point x="465" y="599" type="curve" smooth="yes"/>
      <point x="465" y="653"/>
      <point x="433" y="681"/>
      <point x="393" y="681" type="curve" smooth="yes"/>
      <point x="373" y="681"/>
      <point x="363" y="677"/>
      <point x="356" y="675" type="curve"/>
      <point x="356" y="690"/>
      <point x="393" y="726"/>
      <point x="471" y="747" type="curve"/>
    </contour>
    <contour>
      <point x="211" y="795" type="line"/>
      <point x="124" y="784"/>
      <point x="36" y="690"/>
      <point x="36" y="614" type="curve" smooth="yes"/>
      <point x="36" y="560"/>
      <point x="68" y="505"/>
      <point x="134" y="505" type="curve" smooth="yes"/>
      <point x="201" y="505"/>
      <point x="237" y="549"/>
      <point x="237" y="599" type="curve" smooth="yes"/>
      <point x="237" y="653"/>
      <point x="204" y="681"/>
      <point x="164" y="681" type="curve" smooth="yes"/>
      <point x="144" y="681"/>
      <point x="132" y="677"/>
      <point x="127" y="675" type="curve"/>
      <point x="127" y="690"/>
      <point x="164" y="726"/>
      <point x="243" y="747" type="curve"/>
    </contour>
  </outline>
</glyph>
<glyph name="dagger" format="1">
  <advance width="555"/>
  <unicode hex="2020"/>
  <outline>
    <contour>
      <point x="102" y="399" type="curve" smooth="yes"/>
      <point x="149" y="399"/>
      <point x="176" y="436"/>
      <point x="247" y="444" type="curve"/>
      <point x="246" y="351"/>
      <point x="225" y="304"/>
      <point x="176" y="250" type="curve"/>
      <point x="214" y="146"/>
      <point x="247" y="-90"/>
      <point x="247" y="-249" type="curve"/>
      <point x="302" y="-249" type="line"/>
      <point x="302" y="-90"/>
      <point x="337" y="146"/>
      <point x="373" y="250" type="curve"/>
      <point x="326" y="304"/>
      <point x="302" y="351"/>
      <point x="302" y="444" type="curve"/>
      <point x="389" y="436"/>
      <point x="407" y="399"/>
      <point x="461" y="399" type="curve"/>
      <point x="509" y="399"/>
      <point x="539" y="431"/>
      <point x="539" y="473" type="curve" smooth="yes"/>
      <point x="539" y="516"/>
      <point x="509" y="547"/>
      <point x="461" y="547" type="curve"/>
      <point x="407" y="547"/>
      <point x="390" y="510"/>
      <point x="302" y="500" type="curve"/>
      <point x="315" y="603"/>
      <point x="361" y="628"/>
      <point x="355" y="677" type="curve" smooth="yes"/>
      <point x="361" y="718"/>
      <point x="329" y="749"/>
      <point x="279" y="749" type="curve" smooth="yes"/>
      <point x="239" y="749"/>
      <point x="206" y="718"/>
      <point x="200" y="677" type="curve" smooth="yes"/>
      <point x="206" y="627"/>
      <point x="254" y="602"/>
      <point x="252" y="500" type="curve"/>
      <point x="175" y="509"/>
      <point x="149" y="547"/>
      <point x="102" y="547" type="curve" smooth="yes"/>
      <point x="63" y="547"/>
      <point x="30" y="516"/>
      <point x="24" y="473" type="curve" smooth="yes"/>
      <point x="30" y="431"/>
      <point x="63" y="399"/>
    </contour>
  </outline>
</glyph>
<glyph name="guilsinglleft" format="1">
  <advance width="326"/>
  <unicode hex="2039"/>
  <outline>
    <contour>
      <point x="236" y="62" type="line"/>
      <point x="275" y="86" type="line"/>
      <point x="194" y="251" type="line"/>
      <point x="278" y="417" type="line"/>
      <point x="242" y="441" type="line"/>
      <point x="42" y="251" type="line"/>
    </contour>
  </outline>
</glyph>
<glyph name="guilsinglright" format="1">
  <advance width="326"/>
  <unicode hex="203A"/>
  <outline>
    <contour>
      <point x="284" y="251" type="line"/>
      <point x="84" y="441" type="line"/>
      <point x="48" y="417" type="line"/>
      <point x="132" y="251" type="line"/>
      <point x="51" y="86" type="line"/>
      <point x="90" y="62" type="line"/>
    </contour>
  </outline>
</glyph>
<glyph name="foursuperior" format="1">
  <advance width="275"/>
  <unicode hex="2074"/>
  <outline>
    <contour>
      <point x="8" y="549" type="line"/>
      <point x="162" y="747" type="line"/>
      <point x="197" y="747" type="line"/>
      <point x="197" y="548" type="line"/>
      <point x="231" y="549"/>
      <point x="234" y="551"/>
      <point x="234" y="582" type="curve"/>
      <point x="252" y="582" type="line"/>
      <point x="252" y="492" type="line"/>
      <point x="234" y="492" type="line"/>
      <point x="234" y="513"/>
      <point x="230" y="517"/>
      <point x="197" y="518" type="curve"/>
      <point x="197" y="511" type="line"/>
      <point x="197" y="477"/>
      <point x="201" y="470"/>
      <point x="229" y="469" type="curve"/>
      <point x="229" y="448" type="line"/>
      <point x="81" y="448" type="line"/>
      <point x="81" y="469" type="line"/>
      <point x="119" y="471"/>
      <point x="125" y="477"/>
      <point x="125" y="508" type="curve" smooth="yes"/>
      <point x="125" y="517" type="line"/>
      <point x="8" y="517" type="line"/>
    </contour>
    <contour>
      <point x="125" y="645" type="line"/>
      <point x="121" y="645" type="line"/>
      <point x="46" y="549" type="line"/>
      <point x="125" y="549" type="line"/>
    </contour>
  </outline>
</glyph>
<glyph name="fivesuperior" format="1">
  <advance width="256"/>
  <unicode hex="2075"/>
  <outline>
    <contour>
      <point x="110" y="694" type="line"/>
      <point x="143" y="694" type="line"/>
      <point x="187" y="694"/>
      <point x="218" y="713"/>
      <point x="225" y="747" type="curve"/>
      <point x="221" y="747" type="line"/>
      <point x="205" y="743"/>
      <point x="183" y="740"/>
      <point x="150" y="740" type="curve" smooth="yes"/>
      <point x="125" y="740"/>
      <point x="107" y="743"/>
      <point x="97" y="747" type="curve"/>
      <point x="54" y="589" type="line" smooth="yes"/>
      <point x="51" y="579"/>
      <point x="55" y="571"/>
      <point x="65" y="571" type="curve" smooth="yes"/>
      <point x="74" y="571"/>
      <point x="77" y="576"/>
      <point x="83" y="589" type="curve" smooth="yes"/>
      <point x="90" y="604"/>
      <point x="103" y="615"/>
      <point x="122" y="615" type="curve"/>
      <point x="142" y="615"/>
      <point x="155" y="599"/>
      <point x="155" y="570" type="curve" smooth="yes"/>
      <point x="155" y="510"/>
      <point x="135" y="481"/>
      <point x="96" y="481" type="curve" smooth="yes"/>
      <point x="74" y="481"/>
      <point x="66" y="490"/>
      <point x="63" y="497" type="curve" smooth="yes"/>
      <point x="58" y="507"/>
      <point x="62" y="534"/>
      <point x="32" y="534" type="curve" smooth="yes"/>
      <point x="16" y="534"/>
      <point x="7" y="525"/>
      <point x="7" y="510" type="curve" smooth="yes"/>
      <point x="7" y="472"/>
      <point x="47" y="445"/>
      <point x="98" y="445" type="curve" smooth="yes"/>
      <point x="172" y="445"/>
      <point x="231" y="488"/>
      <point x="231" y="555" type="curve" smooth="yes"/>
      <point x="231" y="610"/>
      <point x="191" y="650"/>
      <point x="142" y="650" type="curve" smooth="yes"/>
      <point x="121" y="650"/>
      <point x="104" y="642"/>
      <point x="95" y="631" type="curve"/>
      <point x="93" y="632" type="line"/>
    </contour>
  </outline>
</glyph>
<glyph name="sixsuperior" format="1">
  <advance width="285"/>
  <unicode hex="2076"/>
  <outline>
    <contour>
      <point x="265" y="550" type="curve" smooth="yes"/>
      <point x="265" y="605"/>
      <point x="222" y="649"/>
      <point x="168" y="649" type="curve" smooth="yes"/>
      <point x="142" y="649"/>
      <point x="114" y="639"/>
      <point x="98" y="616" type="curve"/>
      <point x="95" y="615" type="line"/>
      <point x="95" y="674"/>
      <point x="125" y="710"/>
      <point x="157" y="710" type="curve" smooth="yes"/>
      <point x="187" y="710"/>
      <point x="187" y="674"/>
      <point x="213" y="674" type="curve" smooth="yes"/>
      <point x="230" y="674"/>
      <point x="239" y="684"/>
      <point x="239" y="699" type="curve" smooth="yes"/>
      <point x="239" y="726"/>
      <point x="206" y="747"/>
      <point x="166" y="747" type="curve" smooth="yes"/>
      <point x="88" y="747"/>
      <point x="24" y="673"/>
      <point x="24" y="581" type="curve" smooth="yes"/>
      <point x="24" y="498"/>
      <point x="74" y="445"/>
      <point x="145" y="445" type="curve" smooth="yes"/>
      <point x="213" y="445"/>
      <point x="265" y="491"/>
    </contour>
    <contour>
      <point x="102" y="568" type="line"/>
      <point x="118" y="599"/>
      <point x="133" y="612"/>
      <point x="152" y="612" type="curve" smooth="yes"/>
      <point x="177" y="612"/>
      <point x="188" y="590"/>
      <point x="188" y="542" type="curve" smooth="yes"/>
      <point x="188" y="495"/>
      <point x="174" y="466"/>
      <point x="146" y="466" type="curve" smooth="yes"/>
      <point x="116" y="466"/>
      <point x="102" y="495"/>
      <point x="102" y="549" type="curve" smooth="yes"/>
    </contour>
  </outline>
</glyph>
<glyph name="eightsuperior" format="1">
  <advance width="272"/>
  <unicode hex="2078"/>
  <outline>
    <contour>
      <point x="147" y="565" type="line" smooth="yes"/>
      <point x="176" y="550"/>
      <point x="189" y="534"/>
      <point x="189" y="519" type="curve" smooth="yes"/>
      <point x="189" y="498"/>
      <point x="170" y="481"/>
      <point x="141" y="481" type="curve" smooth="yes"/>
      <point x="110" y="481"/>
      <point x="82" y="500"/>
      <point x="82" y="528" type="curve" smooth="yes"/>
      <point x="82" y="549"/>
      <point x="97" y="569"/>
      <point x="122" y="578" type="curve"/>
    </contour>
    <contour>
      <point x="182" y="613" type="curve"/>
      <point x="212" y="629"/>
      <point x="234" y="646"/>
      <point x="234" y="680" type="curve" smooth="yes"/>
      <point x="234" y="725"/>
      <point x="183.694310403" y="747.0"/>
      <point x="135" y="747" type="curve" smooth="yes"/>
      <point x="78" y="747"/>
      <point x="34.0" y="714.51802171"/>
      <point x="34" y="671" type="curve" smooth="yes"/>
      <point x="34" y="633"/>
      <point x="60" y="610"/>
      <point x="91" y="594" type="curve"/>
      <point x="55" y="578"/>
      <point x="24" y="556"/>
      <point x="24" y="521" type="curve"/>
      <point x="24" y="469"/>
      <point x="77" y="445"/>
      <point x="135" y="445" type="curve" smooth="yes"/>
      <point x="196" y="445"/>
      <point x="248" y="477"/>
      <point x="248" y="529" type="curve" smooth="yes"/>
      <point x="248" y="570"/>
      <point x="218" y="596"/>
    </contour>
    <contour>
      <point x="133" y="641" type="line" smooth="yes"/>
      <point x="109" y="654"/>
      <point x="100" y="667"/>
      <point x="100" y="682" type="curve" smooth="yes"/>
      <point x="100" y="698"/>
      <point x="109" y="713"/>
      <point x="137" y="713" type="curve"/>
      <point x="164" y="713"/>
      <point x="179" y="698"/>
      <point x="179" y="680" type="curve" smooth="yes"/>
      <point x="179" y="661"/>
      <point x="170" y="639"/>
      <point x="156" y="629" type="curve"/>
    </contour>
  </outline>
</glyph>
<glyph name="oneinferior" format="1">
  <advance width="240"/>
  <unicode hex="2081"/>
  <outline>
    <contour>
      <point x="155" y="299" type="line"/>
      <point x="121" y="291"/>
      <point x="79" y="283"/>
      <point x="45" y="282" type="curve"/>
      <point x="45" y="257" type="line"/>
      <point x="72" y="257"/>
      <point x="87" y="255"/>
      <point x="89" y="243" type="curve" smooth="yes"/>
      <point x="90" y="240"/>
      <point x="90" y="218"/>
      <point x="90" y="189" type="curve" smooth="yes"/>
      <point x="90" y="72" type="line"/>
      <point x="90" y="35"/>
      <point x="85" y="28"/>
      <point x="47" y="27" type="curve"/>
      <point x="47" y="0" type="line"/>
      <point x="199" y="0" type="line"/>
      <point x="199" y="27" type="line"/>
      <point x="161" y="28"/>
      <point x="155" y="35"/>
      <point x="155" y="75" type="curve" smooth="yes"/>
    </contour>
  </outline>
</glyph>
<glyph name="twoinferior" format="1">
  <advance width="272"/>
  <unicode hex="2082"/>
  <outline>
    <contour>
      <point x="104" y="48" type="line"/>
      <point x="181" y="101"/>
      <point x="242" y="157"/>
      <point x="242" y="216" type="curve" smooth="yes"/>
      <point x="242" y="264"/>
      <point x="196" y="299"/>
      <point x="131" y="299" type="curve" smooth="yes"/>
      <point x="69" y="299"/>
      <point x="22" y="265"/>
      <point x="22" y="219" type="curve" smooth="yes"/>
      <point x="22" y="186"/>
      <point x="48" y="161"/>
      <point x="81" y="161" type="curve" smooth="yes"/>
      <point x="102" y="161"/>
      <point x="116" y="173"/>
      <point x="119" y="187" type="curve"/>
      <point x="100" y="187"/>
      <point x="88" y="203"/>
      <point x="88" y="227" type="curve" smooth="yes"/>
      <point x="88" y="247"/>
      <point x="104" y="263"/>
      <point x="124" y="263" type="curve" smooth="yes"/>
      <point x="150" y="263"/>
      <point x="166" y="245"/>
      <point x="166" y="216" type="curve" smooth="yes"/>
      <point x="166" y="164"/>
      <point x="140" y="120"/>
      <point x="25" y="20" type="curve"/>
      <point x="25" y="0" type="line"/>
      <point x="232" y="0" type="line"/>
      <point x="246" y="81" type="line"/>
      <point x="219" y="81" type="line"/>
      <point x="211" y="52"/>
      <point x="199" y="44"/>
      <point x="178" y="44" type="curve" smooth="yes"/>
      <point x="104" y="44" type="line"/>
    </contour>
  </outline>
</glyph>
<glyph name="threeinferior" format="1">
  <advance width="274"/>
  <unicode hex="2083"/>
  <outline>
    <contour>
      <point x="170" y="79" type="curve" smooth="yes"/>
      <point x="170" y="112"/>
      <point x="156" y="134"/>
      <point x="132" y="134" type="curve"/>
      <point x="122" y="130"/>
      <point x="111" y="127"/>
      <point x="104" y="127" type="curve" smooth="yes"/>
      <point x="89" y="127"/>
      <point x="79" y="137"/>
      <point x="79" y="149" type="curve" smooth="yes"/>
      <point x="79" y="162"/>
      <point x="89" y="170"/>
      <point x="103" y="170" type="curve" smooth="yes"/>
      <point x="110" y="170"/>
      <point x="119" y="168"/>
      <point x="129" y="165" type="curve"/>
      <point x="149" y="165"/>
      <point x="163" y="186"/>
      <point x="163" y="221" type="curve" smooth="yes"/>
      <point x="163" y="245"/>
      <point x="152" y="260"/>
      <point x="129" y="260" type="curve" smooth="yes"/>
      <point x="108" y="260"/>
      <point x="95" y="248"/>
      <point x="95" y="231" type="curve" smooth="yes"/>
      <point x="95" y="218"/>
      <point x="103" y="210"/>
      <point x="116" y="210" type="curve"/>
      <point x="114" y="200"/>
      <point x="94" y="191"/>
      <point x="77" y="191" type="curve" smooth="yes"/>
      <point x="51" y="191"/>
      <point x="34" y="206"/>
      <point x="34" y="232" type="curve" smooth="yes"/>
      <point x="34" y="264"/>
      <point x="76" y="294"/>
      <point x="140" y="294" type="curve"/>
      <point x="197" y="294"/>
      <point x="239" y="264"/>
      <point x="239" y="222" type="curve"/>
      <point x="239" y="183"/>
      <point x="214" y="163"/>
      <point x="179" y="156" type="curve"/>
      <point x="179" y="152" type="line"/>
      <point x="222" y="141"/>
      <point x="250" y="109"/>
      <point x="250" y="75" type="curve" smooth="yes"/>
      <point x="250" y="25"/>
      <point x="198" y="-9"/>
      <point x="129" y="-9" type="curve" smooth="yes"/>
      <point x="68" y="-9"/>
      <point x="22" y="20"/>
      <point x="22" y="59" type="curve" smooth="yes"/>
      <point x="22" y="90"/>
      <point x="46" y="108"/>
      <point x="74" y="108" type="curve" smooth="yes"/>
      <point x="93" y="108"/>
      <point x="110" y="99"/>
      <point x="113" y="86" type="curve"/>
      <point x="101" y="86"/>
      <point x="92" y="74"/>
      <point x="92" y="61" type="curve"/>
      <point x="92" y="37"/>
      <point x="110" y="25"/>
      <point x="131" y="25" type="curve"/>
      <point x="157" y="25"/>
      <point x="170" y="45"/>
    </contour>
  </outline>
</glyph>
<glyph name="fourinferior" format="1">
  <advance width="275"/>
  <unicode hex="2084"/>
  <outline>
    <contour>
      <point x="8" y="100" type="line"/>
      <point x="162" y="299" type="line"/>
      <point x="197" y="299" type="line"/>
      <point x="197" y="99" type="line"/>
      <point x="231" y="100"/>
      <point x="234" y="104"/>
      <point x="234" y="133" type="curve"/>
      <point x="252" y="133" type="line"/>
      <point x="252" y="44" type="line"/>
      <point x="234" y="44" type="line"/>
      <point x="234" y="66"/>
      <point x="230" y="69"/>
      <point x="197" y="70" type="curve"/>
      <point x="197" y="62" type="line"/>
      <point x="197" y="28"/>
      <point x="201" y="23"/>
      <point x="229" y="22" type="curve"/>
      <point x="229" y="0" type="line"/>
      <point x="81" y="0" type="line"/>
      <point x="81" y="22" type="line"/>
      <point x="119" y="24"/>
      <point x="125" y="28"/>
      <point x="125" y="59" type="curve" smooth="yes"/>
      <point x="125" y="69" type="line"/>
      <point x="8" y="69" type="line"/>
    </contour>
    <contour>
      <point x="125" y="198" type="line"/>
      <point x="121" y="198" type="line"/>
      <point x="46" y="100" type="line"/>
      <point x="125" y="100" type="line"/>
    </contour>
  </outline>
</glyph>
<glyph name="sixinferior" format="1">
  <advance width="287"/>
  <unicode hex="2086"/>
  <outline>
    <contour>
      <point x="265" y="96" type="curve" smooth="yes"/>
      <point x="265" y="152"/>
      <point x="222" y="195"/>
      <point x="168" y="195" type="curve" smooth="yes"/>
      <point x="142" y="195"/>
      <point x="114" y="185"/>
      <point x="98" y="162" type="curve"/>
      <point x="95" y="162" type="line"/>
      <point x="95" y="220"/>
      <point x="125" y="256"/>
      <point x="157" y="256" type="curve" smooth="yes"/>
      <point x="187" y="256"/>
      <point x="187" y="220"/>
      <point x="213" y="220" type="curve" smooth="yes"/>
      <point x="230" y="220"/>
      <point x="239" y="230"/>
      <point x="239" y="245" type="curve" smooth="yes"/>
      <point x="239" y="272"/>
      <point x="206" y="294"/>
      <point x="166" y="294" type="curve" smooth="yes"/>
      <point x="88" y="294"/>
      <point x="24" y="219"/>
      <point x="24" y="127" type="curve" smooth="yes"/>
      <point x="24" y="45"/>
      <point x="74" y="-9"/>
      <point x="145" y="-9" type="curve" smooth="yes"/>
      <point x="213" y="-9"/>
      <point x="265" y="37"/>
    </contour>
    <contour>
      <point x="102" y="115" type="line"/>
      <point x="118" y="145"/>
      <point x="133" y="158"/>
      <point x="152" y="158" type="curve" smooth="yes"/>
      <point x="177" y="158"/>
      <point x="188" y="136"/>
      <point x="188" y="88" type="curve" smooth="yes"/>
      <point x="188" y="41"/>
      <point x="174" y="12"/>
      <point x="146" y="12" type="curve" smooth="yes"/>
      <point x="116" y="12"/>
      <point x="102" y="41"/>
      <point x="102" y="95" type="curve" smooth="yes"/>
    </contour>
  </outline>
</glyph>
<glyph name="nineinferior" format="1">
  <advance width="288"/>
  <unicode hex="2089"/>
  <outline>
    <contour>
      <point x="23" y="187" type="curve" smooth="yes"/>
      <point x="23" y="141"/>
      <point x="67" y="102"/>
      <point x="120" y="102" type="curve" smooth="yes"/>
      <point x="147" y="102"/>
      <point x="173" y="112"/>
      <point x="189" y="136" type="curve"/>
      <point x="192" y="132" type="line"/>
      <point x="192" y="67"/>
      <point x="164" y="27"/>
      <point x="130" y="27" type="curve" smooth="yes"/>
      <point x="94" y="27"/>
      <point x="92" y="63"/>
      <point x="60" y="63" type="curve" smooth="yes"/>
      <point x="45" y="63"/>
      <point x="36" y="54"/>
      <point x="36" y="39" type="curve" smooth="yes"/>
      <point x="36" y="12"/>
      <point x="74" y="-9"/>
      <point x="121" y="-9" type="curve" smooth="yes"/>
      <point x="201" y="-9"/>
      <point x="265" y="64"/>
      <point x="265" y="156" type="curve" smooth="yes"/>
      <point x="265" y="239"/>
      <point x="214" y="294"/>
      <point x="143" y="294" type="curve" smooth="yes"/>
      <point x="75" y="294"/>
      <point x="23" y="247"/>
    </contour>
    <contour>
      <point x="186" y="184" type="line"/>
      <point x="169" y="151"/>
      <point x="154" y="139"/>
      <point x="135" y="139" type="curve" smooth="yes"/>
      <point x="111" y="139"/>
      <point x="100" y="158"/>
      <point x="100" y="198" type="curve" smooth="yes"/>
      <point x="100" y="244"/>
      <point x="116" y="271"/>
      <point x="144" y="271" type="curve" smooth="yes"/>
      <point x="172" y="271"/>
      <point x="186" y="247"/>
      <point x="186" y="202" type="curve" smooth="yes"/>
    </contour>
  </outline>
</glyph>
<glyph name="Euro" format="1">
  <advance width="778"/>
  <unicode hex="20AC"/>
  <outline>
    <contour>
      <point x="540" y="343" type="line"/>
      <point x="339" y="343" type="line"/>
      <point x="337" y="353"/>
      <point x="336" y="368"/>
      <point x="336" y="381" type="curve" smooth="yes"/>
      <point x="336" y="393"/>
      <point x="337" y="404"/>
      <point x="339" y="411" type="curve"/>
      <point x="540" y="411" type="line"/>
      <point x="540" y="470" type="line"/>
      <point x="343" y="470" type="line"/>
      <point x="369" y="625"/>
      <point x="420" y="687"/>
      <point x="490" y="687" type="curve"/>
      <point x="560" y="687"/>
      <point x="620" y="621"/>
      <point x="641" y="503" type="curve"/>
      <point x="699" y="503" type="line"/>
      <point x="699" y="737" type="line"/>
      <point x="657" y="737" type="line"/>
      <point x="639" y="688" type="line"/>
      <point x="600" y="723"/>
      <point x="543" y="747"/>
      <point x="468" y="747" type="curve"/>
      <point x="298" y="747"/>
      <point x="160" y="650"/>
      <point x="127" y="470" type="curve"/>
      <point x="34" y="470" type="line"/>
      <point x="34" y="411" type="line"/>
      <point x="121" y="411" type="line"/>
      <point x="120" y="401"/>
      <point x="119" y="389"/>
      <point x="119" y="376" type="curve" smooth="yes"/>
      <point x="119" y="364"/>
      <point x="120" y="352"/>
      <point x="121" y="343" type="curve"/>
      <point x="35" y="343" type="line"/>
      <point x="35" y="285" type="line"/>
      <point x="127" y="285" type="line"/>
      <point x="162" y="109"/>
      <point x="302" y="-9"/>
      <point x="474" y="-9" type="curve" smooth="yes"/>
      <point x="548" y="-9"/>
      <point x="607" y="15"/>
      <point x="655" y="66" type="curve"/>
      <point x="666" y="0" type="line"/>
      <point x="715" y="0" type="line"/>
      <point x="715" y="267" type="line"/>
      <point x="657" y="267" type="line"/>
      <point x="645" y="139"/>
      <point x="576" y="50"/>
      <point x="503" y="50" type="curve"/>
      <point x="413" y="50"/>
      <point x="365" y="100"/>
      <point x="343" y="285" type="curve"/>
      <point x="540" y="285" type="line"/>
    </contour>
  </outline>
</glyph>
<glyph name="onethird" format="1">
  <advance width="703"/>
  <unicode hex="2153"/>
  <outline>
    <contour>
      <point x="671" y="737" type="line"/>
      <point x="593" y="737" type="line"/>
      <point x="25" y="0" type="line"/>
      <point x="113" y="0" type="line"/>
    </contour>
    <component base="onesuperior" xOffset="87"/>
    <component base="threeinferior" xOffset="361"/>
  </outline>
</glyph>
<glyph name="oneeighth" format="1">
  <advance width="703"/>
  <unicode hex="215B"/>
  <outline>
    <contour>
      <point x="671" y="737" type="line"/>
      <point x="593" y="737" type="line"/>
      <point x="25" y="0" type="line"/>
      <point x="113" y="0" type="line"/>
    </contour>
    <component base="onesuperior" xOffset="87"/>
    <component base="eightinferior" xOffset="361"/>
  </outline>
</glyph>
<glyph name="fiveeighths" format="1">
  <advance width="701"/>
  <unicode hex="215D"/>
  <outline>
    <contour>
      <point x="675" y="737" type="line"/>
      <point x="596" y="737" type="line"/>
      <point x="29" y="0" type="line"/>
      <point x="117" y="0" type="line"/>
    </contour>
    <component base="eightinferior" xOffset="365"/>
    <component base="fivesuperior" xOffset="70"/>
  </outline>
</glyph>
<glyph name="seveneighths" format="1">
  <advance width="703"/>
  <unicode hex="215E"/>
  <outline>
    <contour>
      <point x="671" y="737" type="line"/>
      <point x="592" y="737" type="line"/>
      <point x="25" y="0" type="line"/>
      <point x="113" y="0" type="line"/>
    </contour>
    <component base="eightinferior" xOffset="361"/>
    <component base="sevensuperior" xOffset="111"/>
  </outline>
</glyph>
<glyph name="minus" format="1">
  <advance width="607"/>
  <unicode hex="2212"/>
  <outline>
    <contour>
      <point x="545" y="358" type="line"/>
      <point x="63" y="358" type="line"/>
      <point x="63" y="291" type="line"/>
      <point x="545" y="291" type="line"/>
    </contour>
  </outline>
</glyph>
<glyph name="uni2215" format="1">
  <advance width="567"/>
  <unicode hex="2215"/>
  <outline>
    <contour>
      <point x="606" y="737" type="line"/>
      <point x="530" y="737" type="line"/>
      <point x="-38" y="0" type="line"/>
      <point x="46" y="0" type="line"/>
    </contour>
  </outline>
</glyph>
<glyph name="acute.cap" format="1">
  <advance width="314"/>
  <outline>
    <contour>
      <point x="96" y="786" type="line"/>
      <point x="204" y="812" type="line" smooth="yes"/>
      <point x="265" y="827"/>
      <point x="294" y="850"/>
      <point x="294" y="878" type="curve"/>
      <point x="294" y="903"/>
      <point x="272" y="920"/>
      <point x="230" y="920" type="curve" smooth="yes"/>
      <point x="194" y="920"/>
      <point x="159" y="905"/>
      <point x="121" y="872" type="curve" smooth="yes"/>
      <point x="20" y="786" type="line"/>
    </contour>
    <contour>
      <point x="124" y="795" type="move" name="_topcap"/>
    </contour>
  </outline>
</glyph>
<glyph name="breve.cap" format="1">
  <advance width="325"/>
  <outline>
    <contour>
      <point x="266" y="919" type="line"/>
      <point x="254" y="897"/>
      <point x="213" y="883"/>
      <point x="162" y="883" type="curve" smooth="yes"/>
      <point x="112" y="883"/>
      <point x="70" y="897"/>
      <point x="59" y="919" type="curve"/>
      <point x="14" y="919" type="line"/>
      <point x="17" y="844"/>
      <point x="79" y="788"/>
      <point x="163" y="788" type="curve" smooth="yes"/>
      <point x="245" y="788"/>
      <point x="307" y="843"/>
      <point x="312" y="919" type="curve"/>
    </contour>
    <contour>
      <point x="163" y="795" type="move" name="_topcap"/>
    </contour>
  </outline>
</glyph>
<glyph name="c_t" format="1">
  <advance width="956"/>
  <outline>
    <contour>
      <point x="319" y="517" type="curve"/>
      <point x="141" y="517"/>
      <point x="33" y="409"/>
      <point x="33" y="253" type="curve" smooth="yes"/>
      <point x="33" y="87"/>
      <point x="131" y="-3"/>
      <point x="303" y="-3" type="curve"/>
      <point x="388" y="-3"/>
      <point x="480" y="26"/>
      <point x="536" y="79" type="curve"/>
      <point x="514" y="120" type="line"/>
      <point x="463" y="88"/>
      <point x="416" y="68"/>
      <point x="353" y="68" type="curve"/>
      <point x="254" y="68"/>
      <point x="239" y="140"/>
      <point x="239" y="265" type="curve" smooth="yes"/>
      <point x="239" y="384"/>
      <point x="244" y="457"/>
      <point x="294" y="457" type="curve"/>
      <point x="323" y="457"/>
      <point x="332" y="457"/>
      <point x="384" y="376" type="curve" smooth="yes"/>
      <point x="408" y="338"/>
      <point x="430" y="323"/>
      <point x="461" y="323" type="curve" smooth="yes"/>
      <point x="500" y="323"/>
      <point x="527" y="349"/>
      <point x="527" y="389" type="curve" smooth="yes"/>
      <point x="527" y="419"/>
      <point x="511" y="444"/>
      <point x="486" y="465" type="curve" smooth="yes"/>
      <point x="457" y="497"/>
      <point x="447" y="528"/>
      <point x="447" y="566" type="curve"/>
      <point x="447" y="657"/>
      <point x="493" y="729"/>
      <point x="608" y="729" type="curve"/>
      <point x="687" y="729"/>
      <point x="730" y="687"/>
      <point x="730" y="630" type="curve" smooth="yes"/>
      <point x="730" y="575"/>
      <point x="698" y="517"/>
      <point x="568" y="505" type="curve"/>
      <point x="568" y="459" type="line"/>
      <point x="636" y="459" type="line"/>
      <point x="636" y="154" type="line"/>
      <point x="636" y="28"/>
      <point x="693" y="-9"/>
      <point x="798" y="-9" type="curve"/>
      <point x="875" y="-9"/>
      <point x="939" y="13"/>
      <point x="952" y="57" type="curve"/>
      <point x="933" y="89" type="line"/>
      <point x="922" y="67"/>
      <point x="903" y="59"/>
      <point x="882" y="59" type="curve"/>
      <point x="843" y="59"/>
      <point x="833" y="94"/>
      <point x="833" y="125" type="curve"/>
      <point x="833" y="459" type="line"/>
      <point x="934" y="459" type="line"/>
      <point x="934" y="515" type="line"/>
      <point x="833" y="515" type="line"/>
      <point x="833" y="582" type="line"/>
      <point x="833" y="719"/>
      <point x="727" y="784"/>
      <point x="615" y="784" type="curve"/>
      <point x="463" y="784"/>
      <point x="386" y="697"/>
      <point x="386" y="572" type="curve"/>
      <point x="386" y="547"/>
      <point x="386" y="532"/>
      <point x="394" y="511" type="curve"/>
      <point x="371" y="514"/>
      <point x="345" y="517"/>
    </contour>
  </outline>
</glyph>
<glyph name="caron.cap" format="1">
  <advance width="378"/>
  <outline>
    <contour>
      <point x="246" y="785" type="line"/>
      <point x="372" y="919" type="line"/>
      <point x="297" y="919" type="line"/>
      <point x="189" y="874" type="line"/>
      <point x="82" y="919" type="line"/>
      <point x="6" y="919" type="line"/>
      <point x="132" y="785" type="line"/>
    </contour>
    <contour>
      <point x="189" y="795" type="move" name="_topcap"/>
    </contour>
  </outline>
</glyph>
<glyph name="circumflex.cap" format="1">
  <advance width="378"/>
  <outline>
    <contour>
      <point x="132" y="919" type="line"/>
      <point x="6" y="785" type="line"/>
      <point x="82" y="785" type="line"/>
      <point x="189" y="830" type="line"/>
      <point x="297" y="785" type="line"/>
      <point x="372" y="785" type="line"/>
      <point x="246" y="919" type="line"/>
    </contour>
    <contour>
      <point x="189" y="795" type="move" name="_topcap"/>
    </contour>
  </outline>
</glyph>
<glyph name="f_f_h" format="1">
  <advance width="1516"/>
  <outline>
    <contour>
      <point x="382" y="436" type="line"/>
      <point x="483" y="436" type="line"/>
      <point x="483" y="154" type="line"/>
      <point x="483" y="57"/>
      <point x="474" y="44"/>
      <point x="423" y="41" type="curve"/>
      <point x="423" y="0" type="line"/>
      <point x="741" y="0" type="line"/>
      <point x="741" y="41" type="line"/>
      <point x="689" y="43"/>
      <point x="680" y="65"/>
      <point x="680" y="162" type="curve" smooth="yes"/>
      <point x="680" y="436" type="line"/>
      <point x="775" y="436" type="line"/>
      <point x="775" y="493" type="line"/>
      <point x="680" y="493" type="line"/>
      <point x="680" y="623" type="line"/>
      <point x="680" y="698"/>
      <point x="704" y="734"/>
      <point x="757" y="734" type="curve"/>
      <point x="805" y="734"/>
      <point x="835" y="709"/>
      <point x="863" y="672" type="curve"/>
      <point x="899" y="672"/>
      <point x="982" y="679"/>
      <point x="982" y="718" type="curve" smooth="yes"/>
      <point x="982" y="776"/>
      <point x="858" y="795"/>
      <point x="755" y="795" type="curve" smooth="yes"/>
      <point x="635" y="795"/>
      <point x="534" y="757"/>
      <point x="498" y="661" type="curve"/>
      <point x="483" y="664" type="line"/>
      <point x="483" y="493" type="line"/>
      <point x="382" y="493" type="line"/>
    </contour>
    <contour>
      <point x="19" y="436" type="line"/>
      <point x="120" y="436" type="line"/>
      <point x="120" y="154" type="line"/>
      <point x="120" y="57"/>
      <point x="109" y="44"/>
      <point x="32" y="41" type="curve"/>
      <point x="32" y="0" type="line"/>
      <point x="375" y="0" type="line"/>
      <point x="375" y="41" type="line"/>
      <point x="331" y="43"/>
      <point x="316" y="65"/>
      <point x="316" y="162" type="curve" smooth="yes"/>
      <point x="316" y="436" type="line"/>
      <point x="473" y="436" type="line"/>
      <point x="473" y="493" type="line"/>
      <point x="316" y="493" type="line"/>
      <point x="316" y="585" type="line"/>
      <point x="316" y="664"/>
      <point x="340" y="699"/>
      <point x="390" y="699" type="curve"/>
      <point x="434" y="699"/>
      <point x="472" y="676"/>
      <point x="492" y="606" type="curve"/>
      <point x="560" y="665" type="line"/>
      <point x="564" y="726"/>
      <point x="494" y="756"/>
      <point x="378" y="756" type="curve"/>
      <point x="241" y="756"/>
      <point x="120" y="696"/>
      <point x="120" y="536" type="curve" smooth="yes"/>
      <point x="120" y="493" type="line"/>
      <point x="19" y="493" type="line"/>
    </contour>
    <contour>
      <point x="1056" y="284" type="line"/>
      <point x="1056" y="393"/>
      <point x="1070" y="453"/>
      <point x="1141" y="453" type="curve"/>
      <point x="1199" y="453"/>
      <point x="1229" y="417"/>
      <point x="1229" y="280" type="curve"/>
      <point x="1229" y="153" type="line"/>
      <point x="1229" y="56"/>
      <point x="1234" y="44"/>
      <point x="1155" y="41" type="curve"/>
      <point x="1155" y="0" type="line"/>
      <point x="1507" y="0" type="line"/>
      <point x="1507" y="41" type="line"/>
      <point x="1431" y="45"/>
      <point x="1425" y="52"/>
      <point x="1425" y="160" type="curve" smooth="yes"/>
      <point x="1425" y="308" type="line"/>
      <point x="1425" y="454"/>
      <point x="1339" y="517"/>
      <point x="1208" y="517" type="curve"/>
      <point x="1137" y="517"/>
      <point x="1079" y="493"/>
      <point x="1058" y="465" type="curve"/>
      <point x="1053" y="465" type="line"/>
      <point x="1053" y="795" type="line"/>
      <point x="777" y="758" type="line"/>
      <point x="777" y="746" type="line"/>
      <point x="858" y="718" type="line"/>
      <point x="858" y="153" type="line"/>
      <point x="858" y="56"/>
      <point x="843" y="45"/>
      <point x="789" y="41" type="curve"/>
      <point x="789" y="0" type="line"/>
      <point x="1126" y="0" type="line"/>
      <point x="1126" y="41" type="line"/>
      <point x="1048" y="45"/>
      <point x="1056" y="56"/>
      <point x="1056" y="160" type="curve" smooth="yes"/>
    </contour>
  </outline>
</glyph>
<glyph name="f_f_l" format="1">
  <advance width="1155"/>
  <outline>
    <contour>
      <point x="382" y="436" type="line"/>
      <point x="483" y="436" type="line"/>
      <point x="483" y="154" type="line"/>
      <point x="483" y="57"/>
      <point x="474" y="44"/>
      <point x="423" y="41" type="curve"/>
      <point x="423" y="0" type="line"/>
      <point x="741" y="0" type="line"/>
      <point x="741" y="41" type="line"/>
      <point x="689" y="43"/>
      <point x="680" y="65"/>
      <point x="680" y="162" type="curve" smooth="yes"/>
      <point x="680" y="436" type="line"/>
      <point x="775" y="436" type="line"/>
      <point x="775" y="493" type="line"/>
      <point x="680" y="493" type="line"/>
      <point x="680" y="623" type="line"/>
      <point x="680" y="698"/>
      <point x="704" y="734"/>
      <point x="757" y="734" type="curve"/>
      <point x="805" y="734"/>
      <point x="835" y="709"/>
      <point x="863" y="672" type="curve"/>
      <point x="899" y="672"/>
      <point x="982" y="679"/>
      <point x="982" y="718" type="curve" smooth="yes"/>
      <point x="982" y="776"/>
      <point x="858" y="795"/>
      <point x="755" y="795" type="curve" smooth="yes"/>
      <point x="631" y="795"/>
      <point x="527" y="755"/>
      <point x="494" y="652" type="curve"/>
      <point x="483" y="652" type="line"/>
      <point x="483" y="493" type="line"/>
      <point x="382" y="493" type="line"/>
    </contour>
    <contour>
      <point x="19" y="436" type="line"/>
      <point x="120" y="436" type="line"/>
      <point x="120" y="154" type="line"/>
      <point x="120" y="57"/>
      <point x="109" y="44"/>
      <point x="32" y="41" type="curve"/>
      <point x="32" y="0" type="line"/>
      <point x="375" y="0" type="line"/>
      <point x="375" y="41" type="line"/>
      <point x="331" y="43"/>
      <point x="316" y="65"/>
      <point x="316" y="162" type="curve" smooth="yes"/>
      <point x="316" y="436" type="line"/>
      <point x="473" y="436" type="line"/>
      <point x="473" y="493" type="line"/>
      <point x="316" y="493" type="line"/>
      <point x="316" y="585" type="line"/>
      <point x="316" y="664"/>
      <point x="340" y="699"/>
      <point x="390" y="699" type="curve"/>
      <point x="434" y="699"/>
      <point x="472" y="676"/>
      <point x="492" y="606" type="curve"/>
      <point x="560" y="665" type="line"/>
      <point x="564" y="726"/>
      <point x="494" y="756"/>
      <point x="378" y="756" type="curve"/>
      <point x="241" y="756"/>
      <point x="120" y="696"/>
      <point x="120" y="536" type="curve" smooth="yes"/>
      <point x="120" y="493" type="line"/>
      <point x="19" y="493" type="line"/>
    </contour>
    <contour>
      <point x="1056" y="795" type="line"/>
      <point x="770" y="758" type="line"/>
      <point x="770" y="738" type="line"/>
      <point x="858" y="747" type="line"/>
      <point x="858" y="154" type="line"/>
      <point x="858" y="63"/>
      <point x="852" y="44"/>
      <point x="793" y="41" type="curve"/>
      <point x="793" y="0" type="line"/>
      <point x="1138" y="0" type="line"/>
      <point x="1138" y="41" type="line"/>
      <point x="1064" y="44"/>
      <point x="1056" y="58"/>
      <point x="1056" y="161" type="curve"/>
    </contour>
  </outline>
</glyph>
<glyph name="f_f_t" format="1">
  <advance width="1149"/>
  <outline>
    <contour>
      <point x="829" y="459" type="line"/>
      <point x="829" y="154" type="line"/>
      <point x="829" y="28"/>
      <point x="885" y="-9"/>
      <point x="991" y="-9" type="curve"/>
      <point x="1070" y="-9"/>
      <point x="1132" y="13"/>
      <point x="1144" y="57" type="curve"/>
      <point x="1126" y="89" type="line"/>
      <point x="1115" y="67"/>
      <point x="1096" y="59"/>
      <point x="1075" y="59" type="curve"/>
      <point x="1036" y="59"/>
      <point x="1026" y="94"/>
      <point x="1026" y="125" type="curve"/>
      <point x="1026" y="459" type="line"/>
      <point x="1128" y="459" type="line"/>
      <point x="1128" y="515" type="line"/>
      <point x="1026" y="515" type="line"/>
      <point x="1026" y="628" type="line"/>
      <point x="967" y="628" type="line"/>
      <point x="928" y="543"/>
      <point x="863" y="515"/>
      <point x="767" y="515" type="curve"/>
      <point x="761" y="459" type="line"/>
    </contour>
    <contour>
      <point x="383" y="459" type="line"/>
      <point x="485" y="459" type="line"/>
      <point x="485" y="154" type="line"/>
      <point x="485" y="57"/>
      <point x="462" y="44"/>
      <point x="423" y="41" type="curve"/>
      <point x="423" y="0" type="line"/>
      <point x="738" y="0" type="line"/>
      <point x="738" y="41" type="line"/>
      <point x="683" y="43"/>
      <point x="682" y="65"/>
      <point x="682" y="162" type="curve" smooth="yes"/>
      <point x="682" y="459" type="line"/>
      <point x="833" y="459" type="line"/>
      <point x="833" y="515" type="line"/>
      <point x="682" y="515" type="line"/>
      <point x="682" y="623" type="line"/>
      <point x="682" y="704"/>
      <point x="703" y="737"/>
      <point x="740" y="737" type="curve" smooth="yes"/>
      <point x="774" y="737"/>
      <point x="784" y="713"/>
      <point x="793" y="695" type="curve" smooth="yes"/>
      <point x="805" y="674"/>
      <point x="817" y="638"/>
      <point x="865" y="638" type="curve" smooth="yes"/>
      <point x="902" y="638"/>
      <point x="928" y="660"/>
      <point x="928" y="699" type="curve" smooth="yes"/>
      <point x="928" y="757"/>
      <point x="860" y="795"/>
      <point x="756" y="795" type="curve" smooth="yes"/>
      <point x="634" y="795"/>
      <point x="532" y="754"/>
      <point x="496" y="654" type="curve"/>
      <point x="485" y="640" type="line"/>
      <point x="485" y="515" type="line"/>
      <point x="383" y="515" type="line"/>
    </contour>
    <contour>
      <point x="19" y="459" type="line"/>
      <point x="120" y="459" type="line"/>
      <point x="120" y="154" type="line"/>
      <point x="120" y="57"/>
      <point x="109" y="44"/>
      <point x="32" y="41" type="curve"/>
      <point x="32" y="0" type="line"/>
      <point x="375" y="0" type="line"/>
      <point x="375" y="41" type="line"/>
      <point x="331" y="43"/>
      <point x="316" y="65"/>
      <point x="316" y="162" type="curve" smooth="yes"/>
      <point x="316" y="459" type="line"/>
      <point x="473" y="459" type="line"/>
      <point x="473" y="515" type="line"/>
      <point x="316" y="515" type="line"/>
      <point x="316" y="585" type="line"/>
      <point x="316" y="664"/>
      <point x="340" y="699"/>
      <point x="390" y="699" type="curve"/>
      <point x="434" y="699"/>
      <point x="472" y="676"/>
      <point x="492" y="606" type="curve"/>
      <point x="560" y="665" type="line"/>
      <point x="564" y="726"/>
      <point x="494" y="756"/>
      <point x="378" y="756" type="curve"/>
      <point x="241" y="756"/>
      <point x="120" y="696"/>
      <point x="120" y="536" type="curve" smooth="yes"/>
      <point x="120" y="515" type="line"/>
      <point x="19" y="515" type="line"/>
    </contour>
  </outline>
</glyph>
<glyph name="f_h" format="1">
  <advance width="1149"/>
  <outline>
    <contour>
      <point x="16" y="436" type="line"/>
      <point x="117" y="436" type="line"/>
      <point x="117" y="154" type="line"/>
      <point x="117" y="57"/>
      <point x="107" y="44"/>
      <point x="29" y="41" type="curve"/>
      <point x="29" y="0" type="line"/>
      <point x="375" y="0" type="line"/>
      <point x="375" y="41" type="line"/>
      <point x="323" y="43"/>
      <point x="313" y="65"/>
      <point x="313" y="162" type="curve" smooth="yes"/>
      <point x="313" y="436" type="line"/>
      <point x="409" y="436" type="line"/>
      <point x="409" y="493" type="line"/>
      <point x="313" y="493" type="line"/>
      <point x="313" y="623" type="line"/>
      <point x="313" y="698"/>
      <point x="338" y="734"/>
      <point x="389" y="734" type="curve"/>
      <point x="437" y="734"/>
      <point x="469" y="709"/>
      <point x="497" y="672" type="curve"/>
      <point x="533" y="672"/>
      <point x="614" y="679"/>
      <point x="614" y="718" type="curve" smooth="yes"/>
      <point x="614" y="776"/>
      <point x="492" y="795"/>
      <point x="389" y="795" type="curve" smooth="yes"/>
      <point x="238" y="795"/>
      <point x="117" y="735"/>
      <point x="117" y="575" type="curve" smooth="yes"/>
      <point x="117" y="493" type="line"/>
      <point x="16" y="493" type="line"/>
    </contour>
    <contour>
      <point x="688" y="284" type="line"/>
      <point x="688" y="393"/>
      <point x="703" y="453"/>
      <point x="775" y="453" type="curve"/>
      <point x="831" y="453"/>
      <point x="861" y="417"/>
      <point x="861" y="280" type="curve"/>
      <point x="861" y="153" type="line"/>
      <point x="861" y="56"/>
      <point x="867" y="44"/>
      <point x="789" y="41" type="curve"/>
      <point x="789" y="0" type="line"/>
      <point x="1141" y="0" type="line"/>
      <point x="1141" y="41" type="line"/>
      <point x="1064" y="45"/>
      <point x="1059" y="52"/>
      <point x="1059" y="160" type="curve" smooth="yes"/>
      <point x="1059" y="308" type="line"/>
      <point x="1059" y="454"/>
      <point x="973" y="517"/>
      <point x="842" y="517" type="curve"/>
      <point x="769" y="517"/>
      <point x="713" y="493"/>
      <point x="690" y="465" type="curve"/>
      <point x="686" y="465" type="line"/>
      <point x="686" y="795" type="line"/>
      <point x="411" y="758" type="line"/>
      <point x="411" y="746" type="line"/>
      <point x="492" y="718" type="line"/>
      <point x="492" y="153" type="line"/>
      <point x="492" y="56"/>
      <point x="477" y="45"/>
      <point x="423" y="41" type="curve"/>
      <point x="423" y="0" type="line"/>
      <point x="760" y="0" type="line"/>
      <point x="760" y="41" type="line"/>
      <point x="682" y="45"/>
      <point x="688" y="56"/>
      <point x="688" y="160" type="curve" smooth="yes"/>
    </contour>
  </outline>
</glyph>
<glyph name="f_k" format="1">
  <advance width="1133"/>
  <outline>
    <contour>
      <point x="16" y="436" type="line"/>
      <point x="117" y="436" type="line"/>
      <point x="117" y="154" type="line"/>
      <point x="117" y="57"/>
      <point x="107" y="44"/>
      <point x="29" y="41" type="curve"/>
      <point x="29" y="0" type="line"/>
      <point x="375" y="0" type="line"/>
      <point x="375" y="41" type="line"/>
      <point x="323" y="43"/>
      <point x="313" y="65"/>
      <point x="313" y="162" type="curve" smooth="yes"/>
      <point x="313" y="436" type="line"/>
      <point x="409" y="436" type="line"/>
      <point x="409" y="493" type="line"/>
      <point x="313" y="493" type="line"/>
      <point x="313" y="623" type="line"/>
      <point x="313" y="698"/>
      <point x="338" y="734"/>
      <point x="389" y="734" type="curve"/>
      <point x="437" y="734"/>
      <point x="469" y="709"/>
      <point x="497" y="672" type="curve"/>
      <point x="533" y="672"/>
      <point x="614" y="679"/>
      <point x="614" y="718" type="curve" smooth="yes"/>
      <point x="614" y="776"/>
      <point x="492" y="795"/>
      <point x="389" y="795" type="curve" smooth="yes"/>
      <point x="238" y="795"/>
      <point x="117" y="735"/>
      <point x="117" y="575" type="curve" smooth="yes"/>
      <point x="117" y="493" type="line"/>
      <point x="16" y="493" type="line"/>
    </contour>
    <contour>
      <point x="706" y="264" type="line"/>
      <point x="794" y="137" type="line"/>
      <point x="823" y="95"/>
      <point x="844" y="58"/>
      <point x="844" y="51" type="curve" smooth="yes"/>
      <point x="844" y="42"/>
      <point x="829" y="41"/>
      <point x="782" y="41" type="curve"/>
      <point x="782" y="0" type="line"/>
      <point x="1143" y="0" type="line"/>
      <point x="1143" y="41" type="line"/>
      <point x="1098" y="41"/>
      <point x="1078" y="53"/>
      <point x="1050" y="93" type="curve" smooth="yes"/>
      <point x="859" y="364" type="line"/>
    </contour>
    <contour>
      <point x="736" y="0" type="line"/>
      <point x="736" y="41" type="line"/>
      <point x="698" y="43"/>
      <point x="688" y="59"/>
      <point x="688" y="160" type="curve"/>
      <point x="688" y="186" type="line"/>
      <point x="934" y="409" type="line"/>
      <point x="979" y="449"/>
      <point x="1029" y="467"/>
      <point x="1078" y="467" type="curve"/>
      <point x="1078" y="508" type="line"/>
      <point x="782" y="508" type="line"/>
      <point x="782" y="467" type="line"/>
      <point x="854" y="467"/>
      <point x="868" y="462"/>
      <point x="867" y="442" type="curve" smooth="yes"/>
      <point x="867" y="428"/>
      <point x="856" y="402"/>
      <point x="787" y="346" type="curve" smooth="yes"/>
      <point x="688" y="265" type="line"/>
      <point x="688" y="795" type="line"/>
      <point x="415" y="758" type="line"/>
      <point x="415" y="746" type="line"/>
      <point x="492" y="720" type="line"/>
      <point x="492" y="153" type="line"/>
      <point x="492" y="58"/>
      <point x="482" y="43"/>
      <point x="428" y="41" type="curve"/>
      <point x="428" y="0" type="line"/>
    </contour>
  </outline>
</glyph>
<glyph name="f_l" format="1">
  <advance width="788"/>
  <outline>
    <contour>
      <point x="16" y="436" type="line"/>
      <point x="117" y="436" type="line"/>
      <point x="117" y="154" type="line"/>
      <point x="117" y="57"/>
      <point x="107" y="44"/>
      <point x="29" y="41" type="curve"/>
      <point x="29" y="0" type="line"/>
      <point x="375" y="0" type="line"/>
      <point x="375" y="41" type="line"/>
      <point x="323" y="43"/>
      <point x="313" y="65"/>
      <point x="313" y="162" type="curve" smooth="yes"/>
      <point x="313" y="436" type="line"/>
      <point x="409" y="436" type="line"/>
      <point x="409" y="493" type="line"/>
      <point x="313" y="493" type="line"/>
      <point x="313" y="623" type="line"/>
      <point x="313" y="698"/>
      <point x="338" y="734"/>
      <point x="389" y="734" type="curve"/>
      <point x="437" y="734"/>
      <point x="469" y="709"/>
      <point x="497" y="672" type="curve"/>
      <point x="533" y="672"/>
      <point x="614" y="679"/>
      <point x="614" y="718" type="curve" smooth="yes"/>
      <point x="614" y="776"/>
      <point x="492" y="795"/>
      <point x="389" y="795" type="curve" smooth="yes"/>
      <point x="238" y="795"/>
      <point x="117" y="735"/>
      <point x="117" y="575" type="curve" smooth="yes"/>
      <point x="117" y="493" type="line"/>
      <point x="16" y="493" type="line"/>
    </contour>
    <contour>
      <point x="688" y="795" type="line"/>
      <point x="404" y="758" type="line"/>
      <point x="404" y="738" type="line"/>
      <point x="492" y="747" type="line"/>
      <point x="492" y="154" type="line"/>
      <point x="492" y="63"/>
      <point x="482" y="44"/>
      <point x="427" y="41" type="curve"/>
      <point x="427" y="0" type="line"/>
      <point x="770" y="0" type="line"/>
      <point x="770" y="41" type="line"/>
      <point x="698" y="44"/>
      <point x="688" y="58"/>
      <point x="688" y="161" type="curve"/>
    </contour>
  </outline>
</glyph>
<glyph name="f_t" format="1">
  <advance width="806"/>
  <outline>
    <contour>
      <point x="14" y="459" type="line"/>
      <point x="115" y="459" type="line"/>
      <point x="115" y="154" type="line"/>
      <point x="115" y="57"/>
      <point x="105" y="44"/>
      <point x="27" y="41" type="curve"/>
      <point x="27" y="0" type="line"/>
      <point x="418" y="0" type="line"/>
      <point x="418" y="41" type="line"/>
      <point x="332" y="43"/>
      <point x="311" y="65"/>
      <point x="311" y="162" type="curve" smooth="yes"/>
      <point x="311" y="459" type="line"/>
      <point x="464" y="459" type="line"/>
      <point x="464" y="515" type="line"/>
      <point x="311" y="515" type="line"/>
      <point x="311" y="623" type="line"/>
      <point x="311" y="704"/>
      <point x="334" y="737"/>
      <point x="371" y="737" type="curve" smooth="yes"/>
      <point x="402" y="737"/>
      <point x="413" y="715"/>
      <point x="422" y="698" type="curve" smooth="yes"/>
      <point x="434" y="676"/>
      <point x="448" y="638"/>
      <point x="496" y="638" type="curve" smooth="yes"/>
      <point x="533" y="638"/>
      <point x="557" y="660"/>
      <point x="557" y="699" type="curve" smooth="yes"/>
      <point x="557" y="757"/>
      <point x="491" y="795"/>
      <point x="387" y="795" type="curve" smooth="yes"/>
      <point x="236" y="795"/>
      <point x="115" y="735"/>
      <point x="115" y="575" type="curve" smooth="yes"/>
      <point x="115" y="515" type="line"/>
      <point x="14" y="515" type="line"/>
    </contour>
    <contour>
      <point x="487" y="459" type="line"/>
      <point x="487" y="154" type="line"/>
      <point x="487" y="28"/>
      <point x="543" y="-9"/>
      <point x="647" y="-9" type="curve"/>
      <point x="726" y="-9"/>
      <point x="790" y="13"/>
      <point x="802" y="57" type="curve"/>
      <point x="784" y="89" type="line"/>
      <point x="773" y="67"/>
      <point x="754" y="59"/>
      <point x="733" y="59" type="curve"/>
      <point x="693" y="59"/>
      <point x="684" y="94"/>
      <point x="684" y="125" type="curve"/>
      <point x="684" y="459" type="line"/>
      <point x="785" y="459" type="line"/>
      <point x="785" y="515" type="line"/>
      <point x="684" y="515" type="line"/>
      <point x="684" y="628" type="line"/>
      <point x="625" y="628" type="line"/>
      <point x="586" y="543"/>
      <point x="521" y="515"/>
      <point x="423" y="515" type="curve"/>
      <point x="418" y="459" type="line"/>
    </contour>
  </outline>
</glyph>
<glyph name="hungarumlaut.cap" format="1">
  <advance width="520"/>
  <outline>
    <contour>
      <point x="327" y="786" type="line"/>
      <point x="411" y="812" type="line" smooth="yes"/>
      <point x="481" y="834"/>
      <point x="501" y="856"/>
      <point x="501" y="882" type="curve" smooth="yes"/>
      <point x="501" y="903"/>
      <point x="482" y="919"/>
      <point x="442" y="919" type="curve" smooth="yes"/>
      <point x="406" y="919"/>
      <point x="365" y="908"/>
      <point x="314" y="853" type="curve" smooth="yes"/>
      <point x="251" y="786" type="line"/>
    </contour>
    <contour>
      <point x="97" y="786" type="line"/>
      <point x="181" y="812" type="line" smooth="yes"/>
      <point x="251" y="834"/>
      <point x="271" y="856"/>
      <point x="271" y="882" type="curve" smooth="yes"/>
      <point x="271" y="903"/>
      <point x="252" y="919"/>
      <point x="212" y="919" type="curve" smooth="yes"/>
      <point x="176" y="919"/>
      <point x="135" y="908"/>
      <point x="84" y="853" type="curve" smooth="yes"/>
      <point x="21" y="786" type="line"/>
    </contour>
    <contour>
      <point x="212" y="795" type="move" name="_topcap"/>
    </contour>
  </outline>
</glyph>
<glyph name="macron.cap" format="1">
  <advance width="319"/>
  <outline>
    <contour>
      <point x="300" y="822" type="line"/>
      <point x="300" y="890" type="line"/>
      <point x="21" y="890" type="line"/>
      <point x="21" y="822" type="line"/>
    </contour>
    <contour>
      <point x="160" y="795" type="move" name="_topcap"/>
    </contour>
  </outline>
</glyph>
<glyph name="s_t" format="1">
  <advance width="922"/>
  <outline>
    <contour>
      <point x="282" y="522" type="curve"/>
      <point x="118" y="522"/>
      <point x="61" y="439"/>
      <point x="61" y="365" type="curve"/>
      <point x="61" y="301"/>
      <point x="98" y="254"/>
      <point x="155" y="220" type="curve" smooth="yes"/>
      <point x="262" y="156" type="line" smooth="yes"/>
      <point x="311" y="127"/>
      <point x="347" y="106"/>
      <point x="347" y="78" type="curve"/>
      <point x="347" y="60"/>
      <point x="327" y="48"/>
      <point x="287" y="48" type="curve"/>
      <point x="211" y="48"/>
      <point x="120" y="83"/>
      <point x="107" y="180" type="curve"/>
      <point x="58" y="180" type="line"/>
      <point x="58" y="0" type="line"/>
      <point x="92" y="0" type="line"/>
      <point x="114" y="34" type="line"/>
      <point x="159" y="12"/>
      <point x="227" y="-9"/>
      <point x="294" y="-9" type="curve"/>
      <point x="423" y="-9"/>
      <point x="503" y="61"/>
      <point x="503" y="154" type="curve"/>
      <point x="503" y="225"/>
      <point x="447" y="265"/>
      <point x="408" y="290" type="curve" smooth="yes"/>
      <point x="330" y="339" type="line" smooth="yes"/>
      <point x="254" y="387"/>
      <point x="222" y="405"/>
      <point x="222" y="436" type="curve" smooth="yes"/>
      <point x="222" y="455"/>
      <point x="237" y="462"/>
      <point x="258" y="462" type="curve"/>
      <point x="288.5" y="462.0"/>
      <point x="305.0" y="439.0"/>
      <point x="322.375" y="416.0" type="curve" smooth="yes"/>
      <point x="339.75" y="393.0"/>
      <point x="358.0" y="370.0"/>
      <point x="392" y="370" type="curve" smooth="yes"/>
      <point x="431" y="370"/>
      <point x="453" y="391"/>
      <point x="453" y="426" type="curve" smooth="yes"/>
      <point x="453" y="442"/>
      <point x="445" y="459"/>
      <point x="434" y="473" type="curve" smooth="yes"/>
      <point x="416" y="496"/>
      <point x="412" y="514"/>
      <point x="412" y="566" type="curve"/>
      <point x="412" y="657"/>
      <point x="458" y="729"/>
      <point x="573" y="729" type="curve"/>
      <point x="652" y="729"/>
      <point x="695" y="687"/>
      <point x="695" y="630" type="curve" smooth="yes"/>
      <point x="695" y="575"/>
      <point x="664" y="517"/>
      <point x="534" y="505" type="curve"/>
      <point x="534" y="459" type="line"/>
      <point x="601" y="459" type="line"/>
      <point x="601" y="154" type="line"/>
      <point x="601" y="28"/>
      <point x="658" y="-9"/>
      <point x="763" y="-9" type="curve"/>
      <point x="841" y="-9"/>
      <point x="905" y="13"/>
      <point x="917" y="57" type="curve"/>
      <point x="898" y="89" type="line"/>
      <point x="887" y="67"/>
      <point x="868" y="59"/>
      <point x="847" y="59" type="curve"/>
      <point x="808" y="59"/>
      <point x="799" y="94"/>
      <point x="799" y="125" type="curve"/>
      <point x="799" y="459" type="line"/>
      <point x="899" y="459" type="line"/>
      <point x="899" y="515" type="line"/>
      <point x="799" y="515" type="line"/>
      <point x="799" y="582" type="line"/>
      <point x="799" y="719"/>
      <point x="693" y="784"/>
      <point x="581" y="784" type="curve"/>
      <point x="438" y="784"/>
      <point x="352" y="697"/>
      <point x="352" y="572" type="curve"/>
      <point x="352" y="547"/>
      <point x="354" y="529"/>
      <point x="360" y="508" type="curve"/>
      <point x="345" y="514"/>
      <point x="311" y="522"/>
    </contour>
  </outline>
</glyph>
<glyph name="tilde.cap" format="1">
  <advance width="393"/>
  <outline>
    <contour>
      <point x="57" y="782" type="line"/>
      <point x="66" y="811"/>
      <point x="77" y="821"/>
      <point x="97" y="821" type="curve" smooth="yes"/>
      <point x="143" y="821"/>
      <point x="202" y="774"/>
      <point x="266" y="774" type="curve" smooth="yes"/>
      <point x="347" y="774"/>
      <point x="375" y="851"/>
      <point x="387" y="917" type="curve"/>
      <point x="338" y="917" type="line"/>
      <point x="329" y="888"/>
      <point x="315" y="878"/>
      <point x="290" y="878" type="curve" smooth="yes"/>
      <point x="257" y="878"/>
      <point x="179" y="922"/>
      <point x="127" y="922" type="curve" smooth="yes"/>
      <point x="55" y="922"/>
      <point x="21" y="861"/>
      <point x="6" y="782" type="curve"/>
    </contour>
    <contour>
      <point x="198" y="795" type="move" name="_topcap"/>
    </contour>
  </outline>
</glyph>
